<svg viewBox="0 0 1496 400" xmlns="http://www.w3.org/2000/svg"><g><g><g><g><g><line x1="51.5625" y1="378" x2="46.5625" y2="378" style="visibility: inherit;" fill="rgb(0, 0, 0)" stroke="rgb(204, 204, 204)" stroke-width="1px"></line><line x1="51.5625" y1="346.5" x2="46.5625" y2="346.5" style="visibility: inherit;" fill="rgb(0, 0, 0)" stroke="rgb(204, 204, 204)" stroke-width="1px"></line><line x1="51.5625" y1="315" x2="46.5625" y2="315" style="visibility: inherit;" fill="rgb(0, 0, 0)" stroke="rgb(204, 204, 204)" stroke-width="1px"></line><line x1="51.5625" y1="283.5" x2="46.5625" y2="283.5" style="visibility: inherit;" fill="rgb(0, 0, 0)" stroke="rgb(204, 204, 204)" stroke-width="1px"></line><line x1="51.5625" y1="252.00000000000003" x2="46.5625" y2="252.00000000000003" style="visibility: inherit;" fill="rgb(0, 0, 0)" stroke="rgb(204, 204, 204)" stroke-width="1px"></line><line x1="51.5625" y1="220.49999999999997" x2="46.5625" y2="220.49999999999997" style="visibility: inherit;" fill="rgb(0, 0, 0)" stroke="rgb(204, 204, 204)" stroke-width="1px"></line><line x1="51.5625" y1="189" x2="46.5625" y2="189" style="visibility: inherit;" fill="rgb(0, 0, 0)" stroke="rgb(204, 204, 204)" stroke-width="1px"></line><line x1="51.5625" y1="157.5" x2="46.5625" y2="157.5" style="visibility: inherit;" fill="rgb(0, 0, 0)" stroke="rgb(204, 204, 204)" stroke-width="1px"></line><line x1="51.5625" y1="126.00000000000001" x2="46.5625" y2="126.00000000000001" style="visibility: inherit;" fill="rgb(0, 0, 0)" stroke="rgb(204, 204, 204)" stroke-width="1px"></line><line x1="51.5625" y1="94.5" x2="46.5625" y2="94.5" style="visibility: inherit;" fill="rgb(0, 0, 0)" stroke="rgb(204, 204, 204)" stroke-width="1px"></line><line x1="51.5625" y1="62.999999999999986" x2="46.5625" y2="62.999999999999986" style="visibility: inherit;" fill="rgb(0, 0, 0)" stroke="rgb(204, 204, 204)" stroke-width="1px"></line><line x1="51.5625" y1="31.500000000000014" x2="46.5625" y2="31.500000000000014" style="visibility: inherit;" fill="rgb(0, 0, 0)" stroke="rgb(204, 204, 204)" stroke-width="1px"></line><line x1="51.5625" y1="0" x2="46.5625" y2="0" style="visibility: inherit;" fill="rgb(0, 0, 0)" stroke="rgb(204, 204, 204)" stroke-width="1px"></line></g><g transform="translate(41.5625, 0)"><text x="0" y="378" dx="0em" dy="0.3em" style="text-anchor: end; visibility: hidden; font-family: Roboto, sans-serif; font-size: 12px; font-weight: 200;" fill="rgb(50, 49, 63)" stroke="none" stroke-width="1px">-0.5</text><text x="0" y="346.5" dx="0em" dy="0.3em" style="text-anchor: end; visibility: inherit; font-family: Roboto, sans-serif; font-size: 12px; font-weight: 200;" fill="rgb(50, 49, 63)" stroke="none" stroke-width="1px">0</text><text x="0" y="315" dx="0em" dy="0.3em" style="text-anchor: end; visibility: inherit; font-family: Roboto, sans-serif; font-size: 12px; font-weight: 200;" fill="rgb(50, 49, 63)" stroke="none" stroke-width="1px">0.5</text><text x="0" y="283.5" dx="0em" dy="0.3em" style="text-anchor: end; visibility: inherit; font-family: Roboto, sans-serif; font-size: 12px; font-weight: 200;" fill="rgb(50, 49, 63)" stroke="none" stroke-width="1px">1</text><text x="0" y="252.00000000000003" dx="0em" dy="0.3em" style="text-anchor: end; visibility: inherit; font-family: Roboto, sans-serif; font-size: 12px; font-weight: 200;" fill="rgb(50, 49, 63)" stroke="none" stroke-width="1px">1.5</text><text x="0" y="220.49999999999997" dx="0em" dy="0.3em" style="text-anchor: end; visibility: inherit; font-family: Roboto, sans-serif; font-size: 12px; font-weight: 200;" fill="rgb(50, 49, 63)" stroke="none" stroke-width="1px">2</text><text x="0" y="189" dx="0em" dy="0.3em" style="text-anchor: end; visibility: inherit; font-family: Roboto, sans-serif; font-size: 12px; font-weight: 200;" fill="rgb(50, 49, 63)" stroke="none" stroke-width="1px">2.5</text><text x="0" y="157.5" dx="0em" dy="0.3em" style="text-anchor: end; visibility: inherit; font-family: Roboto, sans-serif; font-size: 12px; font-weight: 200;" fill="rgb(50, 49, 63)" stroke="none" stroke-width="1px">3</text><text x="0" y="126.00000000000001" dx="0em" dy="0.3em" style="text-anchor: end; visibility: inherit; font-family: Roboto, sans-serif; font-size: 12px; font-weight: 200;" fill="rgb(50, 49, 63)" stroke="none" stroke-width="1px">3.5</text><text x="0" y="94.5" dx="0em" dy="0.3em" style="text-anchor: end; visibility: inherit; font-family: Roboto, sans-serif; font-size: 12px; font-weight: 200;" fill="rgb(50, 49, 63)" stroke="none" stroke-width="1px">4</text><text x="0" y="62.999999999999986" dx="0em" dy="0.3em" style="text-anchor: end; visibility: inherit; font-family: Roboto, sans-serif; font-size: 12px; font-weight: 200;" fill="rgb(50, 49, 63)" stroke="none" stroke-width="1px">4.5</text><text x="0" y="31.500000000000014" dx="0em" dy="0.3em" style="text-anchor: end; visibility: inherit; font-family: Roboto, sans-serif; font-size: 12px; font-weight: 200;" fill="rgb(50, 49, 63)" stroke="none" stroke-width="1px">5</text><text x="0" y="0" dx="0em" dy="0.3em" style="text-anchor: end; visibility: hidden; font-family: Roboto, sans-serif; font-size: 12px; font-weight: 200;" fill="rgb(50, 49, 63)" stroke="none" stroke-width="1px">5.5</text></g><line x1="51.5625" y1="0" x2="51.5625" y2="378" fill="rgb(0, 0, 0)" stroke="rgb(204, 204, 204)" stroke-width="1px"></line></g></g><g transform="translate(51, 0)" clip-path="url(#clip_0)"><clipPath id="clip_0"><rect width="1444" height="378"></rect></clipPath><g><g><g><line x1="0" y1="0" x2="0" y2="378" fill="rgb(0, 0, 0)" stroke="rgb(60, 60, 60)" stroke-width="1px" opacity="0.25"></line><line x1="120.36979166666666" y1="0" x2="120.36979166666666" y2="378" fill="rgb(0, 0, 0)" stroke="rgb(60, 60, 60)" stroke-width="1px" opacity="0.25"></line><line x1="240.73958333333331" y1="0" x2="240.73958333333331" y2="378" fill="rgb(0, 0, 0)" stroke="rgb(60, 60, 60)" stroke-width="1px" opacity="0.25"></line><line x1="361.109375" y1="0" x2="361.109375" y2="378" fill="rgb(0, 0, 0)" stroke="rgb(60, 60, 60)" stroke-width="1px" opacity="0.25"></line><line x1="481.47916666666663" y1="0" x2="481.47916666666663" y2="378" fill="rgb(0, 0, 0)" stroke="rgb(60, 60, 60)" stroke-width="1px" opacity="0.25"></line><line x1="601.8489583333334" y1="0" x2="601.8489583333334" y2="378" fill="rgb(0, 0, 0)" stroke="rgb(60, 60, 60)" stroke-width="1px" opacity="0.25"></line><line x1="722.21875" y1="0" x2="722.21875" y2="378" fill="rgb(0, 0, 0)" stroke="rgb(60, 60, 60)" stroke-width="1px" opacity="0.25"></line><line x1="842.5885416666667" y1="0" x2="842.5885416666667" y2="378" fill="rgb(0, 0, 0)" stroke="rgb(60, 60, 60)" stroke-width="1px" opacity="0.25"></line><line x1="962.9583333333333" y1="0" x2="962.9583333333333" y2="378" fill="rgb(0, 0, 0)" stroke="rgb(60, 60, 60)" stroke-width="1px" opacity="0.25"></line><line x1="1083.328125" y1="0" x2="1083.328125" y2="378" fill="rgb(0, 0, 0)" stroke="rgb(60, 60, 60)" stroke-width="1px" opacity="0.25"></line><line x1="1203.6979166666667" y1="0" x2="1203.6979166666667" y2="378" fill="rgb(0, 0, 0)" stroke="rgb(60, 60, 60)" stroke-width="1px" opacity="0.25"></line><line x1="1324.0677083333333" y1="0" x2="1324.0677083333333" y2="378" fill="rgb(0, 0, 0)" stroke="rgb(60, 60, 60)" stroke-width="1px" opacity="0.25"></line><line x1="1444.4375" y1="0" x2="1444.4375" y2="378" fill="rgb(0, 0, 0)" stroke="rgb(60, 60, 60)" stroke-width="1px" opacity="0.25"></line></g><g><line x1="0" y1="378" x2="1444.4375" y2="378" fill="rgb(0, 0, 0)" stroke="rgb(60, 60, 60)" stroke-width="1px" opacity="0.25"></line><line x1="0" y1="346.5" x2="1444.4375" y2="346.5" fill="rgb(0, 0, 0)" stroke="rgb(60, 60, 60)" stroke-width="1px" opacity="0.25"></line><line x1="0" y1="315" x2="1444.4375" y2="315" fill="rgb(0, 0, 0)" stroke="rgb(60, 60, 60)" stroke-width="1px" opacity="0.25"></line><line x1="0" y1="283.5" x2="1444.4375" y2="283.5" fill="rgb(0, 0, 0)" stroke="rgb(60, 60, 60)" stroke-width="1px" opacity="0.25"></line><line x1="0" y1="252.00000000000003" x2="1444.4375" y2="252.00000000000003" fill="rgb(0, 0, 0)" stroke="rgb(60, 60, 60)" stroke-width="1px" opacity="0.25"></line><line x1="0" y1="220.49999999999997" x2="1444.4375" y2="220.49999999999997" fill="rgb(0, 0, 0)" stroke="rgb(60, 60, 60)" stroke-width="1px" opacity="0.25"></line><line x1="0" y1="189" x2="1444.4375" y2="189" fill="rgb(0, 0, 0)" stroke="rgb(60, 60, 60)" stroke-width="1px" opacity="0.25"></line><line x1="0" y1="157.5" x2="1444.4375" y2="157.5" fill="rgb(0, 0, 0)" stroke="rgb(60, 60, 60)" stroke-width="1px" opacity="0.25"></line><line x1="0" y1="126.00000000000001" x2="1444.4375" y2="126.00000000000001" fill="rgb(0, 0, 0)" stroke="rgb(60, 60, 60)" stroke-width="1px" opacity="0.25"></line><line x1="0" y1="94.5" x2="1444.4375" y2="94.5" fill="rgb(0, 0, 0)" stroke="rgb(60, 60, 60)" stroke-width="1px" opacity="0.25"></line><line x1="0" y1="62.999999999999986" x2="1444.4375" y2="62.999999999999986" fill="rgb(0, 0, 0)" stroke="rgb(60, 60, 60)" stroke-width="1px" opacity="0.25"></line><line x1="0" y1="31.500000000000014" x2="1444.4375" y2="31.500000000000014" fill="rgb(0, 0, 0)" stroke="rgb(60, 60, 60)" stroke-width="1px" opacity="0.25"></line><line x1="0" y1="0" x2="1444.4375" y2="0" fill="rgb(0, 0, 0)" stroke="rgb(60, 60, 60)" stroke-width="1px" opacity="0.25"></line></g></g></g><g><g><line x1="0" y1="346.5" x2="1444.4375" y2="346.5" fill="rgb(0, 0, 0)" stroke="rgb(153, 153, 153)" stroke-width="1.5px"></line></g></g><g><g><line x1="120.36979166666666" y1="0" x2="120.36979166666666" y2="378" fill="rgb(0, 0, 0)" stroke="rgb(153, 153, 153)" stroke-width="1.5px"></line></g></g><g><g><g><g><g><path stroke="rgb(204, 51, 17)" stroke-width="2px" d="M120.36979166666666,246.3555850982666L144.44375,256.8378059864044L168.51770833333333,259.2489809989929L192.59166666666667,264.24241304397583L216.665625,266.34395813941956L240.73958333333331,265.09167981147766L264.81354166666665,266.9570746421814L288.8875,268.12758207321167L312.9614583333333,269.05370807647705L337.03541666666666,269.6381582021713L361.109375,269.79792988300323L385.18333333333334,267.86386942863464L409.2572916666667,268.2419922351837L433.33125,268.28890085220337L457.4052083333333,268.4025374650955L481.47916666666663,268.46623134613037L505.55312499999997,268.67786836624146L529.6270833333333,268.856520652771L553.7010416666667,269.06078267097473L577.775,269.16554975509644L601.8489583333334,269.24715542793274L625.9229166666667,269.31295216083527L649.996875,269.330405831337L674.0708333333333,267.1342023611069L698.1447916666667,266.6535129547119L722.21875,266.4017415046692L746.2927083333334,266.0759496688843L770.3666666666667,265.67807507514954L794.4406250000001,265.2554769515991L818.5145833333333,265.2226424217224L842.5885416666667,265.00085163116455L866.6625,264.9117583036423L890.7364583333334,264.78843355178833L914.8104166666666,264.6693445444107L938.884375,264.61206436157227L962.9583333333333,264.4496866464615L987.0322916666667,264.5059905052185L1011.1062499999999,264.51385366916656L1035.1802083333334,264.50644862651825L1059.2541666666666,264.539223074913L1083.328125,264.55859184265137L1107.4020833333334,264.5799207687378L1131.4760416666666,264.5852905511856L1155.55,264.6270171403885L1179.6239583333333,264.6380571126938L1203.6979166666667,264.64239048957825L1227.771875,262.1967136859894L1251.8458333333333,261.55209946632385L1275.9197916666667,261.4674822092056L1299.99375,260.8506556749344" style="fill: none;" fill="none"></path></g><g><path stroke="rgb(238, 51, 119)" stroke-width="2px" d="M120.36979166666666,76.42280387878417L144.44375,75.72540807724L168.51770833333333,72.18018007278444L192.59166666666667,73.77654504776L216.665625,74.97535085678099L240.73958333333331,70.28776359558105L264.81354166666665,69.7460389137268L288.8875,70.79464101791383L312.9614583333333,71.26189470291138L337.03541666666666,72.8375916481018L361.109375,73.0448727607727L385.18333333333334,68.2717595100403L409.2572916666667,68.07006597518922L433.33125,70.50099277496338L457.4052083333333,70.37049579620361L481.47916666666663,70.67862367630005L505.55312499999997,69.84637498855592L529.6270833333333,69.39275979995728L553.7010416666667,70.1652274131775L577.775,71.7519793510437L601.8489583333334,71.8153953552246L625.9229166666667,71.74522018432617L649.996875,71.68189430236818L674.0708333333333,66.01503896713255L698.1447916666667,67.60824966430664L722.21875,67.40171957015993L746.2927083333334,64.22689390182497L770.3666666666667,64.98334980010986L794.4406250000001,64.41996574401854L818.5145833333333,67.09401226043701L842.5885416666667,66.15016222000122L866.6625,66.02492237091066L890.7364583333334,67.07661867141724L914.8104166666666,67.60680770874023L938.884375,67.8948082923889L962.9583333333333,68.14799165725708L987.0322916666667,67.45245838165285L1011.1062499999999,67.14138650894164L1035.1802083333334,68.39231300354004L1059.2541666666666,68.92493534088135L1083.328125,69.03866958618164L1107.4020833333334,69.26845121383666L1131.4760416666666,69.30690336227418L1155.55,69.38095378875732L1179.6239583333333,69.23690843582152L1203.6979166666667,69.2363076210022L1227.771875,63.089281082153335L1251.8458333333333,62.81107378005983L1275.9197916666667,65.91722631454469L1299.99375,64.09360313415529" style="fill: none;" fill="none"></path></g><g><path stroke="rgb(51, 187, 238)" stroke-width="2px" d="M120.36979166666666,234.08114862442014L144.44375,245.22342467308044L168.51770833333333,247.71995294094083L192.59166666666667,252.74365103244781L216.665625,255.12137567996976L240.73958333333331,253.89496994018552L264.81354166666665,255.67938995361325L288.8875,257.2334725856781L312.9614583333333,258.18783688545227L337.03541666666666,258.9114582538605L361.109375,259.117950797081L385.18333333333334,257.23387813568115L409.2572916666667,257.3622872829437L433.33125,257.81845593452454L457.4052083333333,258.095356464386L481.47916666666663,258.24432849884033L505.55312499999997,258.6010773181915L529.6270833333333,258.8241523504257L553.7010416666667,259.1190172433853L577.775,259.31308794021606L601.8489583333334,259.46034014225006L625.9229166666667,259.5048530101776L649.996875,259.50478541851044L674.0708333333333,256.94497632980347L698.1447916666667,256.85942029953003L722.21875,256.7680288553238L746.2927083333334,256.3621333837509L770.3666666666667,256.19730734825134L794.4406250000001,256.1391034126282L818.5145833333333,255.92419946193695L842.5885416666667,255.8569983243942L866.6625,255.86801576614377L890.7364583333334,255.78667294979095L914.8104166666666,255.87973165512082L938.884375,255.90837550163272L962.9583333333333,255.95151400566098L987.0322916666667,255.90776717662814L1011.1062499999999,256.07177460193634L1035.1802083333334,255.95004951953885L1059.2541666666666,256.0147422552109L1083.328125,256.0877938270569L1107.4020833333334,256.1167005300522L1131.4760416666666,256.1196595430374L1155.55,256.1800113916397L1179.6239583333333,256.1856966018677L1203.6979166666667,256.1865452528L1227.771875,253.6074274778366L1251.8458333333333,253.0259588956833L1275.9197916666667,252.63711905479434L1299.99375,252.42883157730103" style="fill: none;" fill="none"></path></g><g><path stroke="rgb(0, 119, 187)" stroke-width="2px" d="M120.36979166666666,233.33732485771176L144.44375,243.42649269104007L168.51770833333333,245.45928204059598L192.59166666666667,250.37129616737366L216.665625,252.5064643621445L240.73958333333331,251.11879241466522L264.81354166666665,253.16055643558502L288.8875,253.99336087703702L312.9614583333333,255.0049903392792L337.03541666666666,255.60893690586087L361.109375,255.81393492221832L385.18333333333334,253.51168763637546L409.2572916666667,253.8892997503281L433.33125,254.00947773456576L457.4052083333333,254.39218175411227L481.47916666666663,254.3546833992004L505.55312499999997,254.6364805698395L529.6270833333333,254.9273200035095L553.7010416666667,255.11059856414795L577.775,255.2174760103226L601.8489583333334,255.35854732990265L625.9229166666667,255.40763390064242L649.996875,255.41706669330594L674.0708333333333,252.86695325374606L698.1447916666667,252.4474868774414L722.21875,252.14267098903656L746.2927083333334,251.85267269611361L770.3666666666667,251.7931394577026L794.4406250000001,251.60813355445862L818.5145833333333,251.5472409725189L842.5885416666667,251.2597961425781L866.6625,251.28120768070224L890.7364583333334,251.06163990497586L914.8104166666666,251.0182310342789L938.884375,251.0715608596802L962.9583333333333,250.9525995254517L987.0322916666667,251.04412615299225L1011.1062499999999,251.2034246921539L1035.1802083333334,251.18241119384768L1059.2541666666666,251.10480844974515L1083.328125,251.26397931575775L1107.4020833333334,251.2847524881363L1131.4760416666666,251.3388783931732L1155.55,251.35513043403628L1179.6239583333333,251.36676371097565L1203.6979166666667,251.36422526836392L1227.771875,248.9798766374588L1251.8458333333333,248.44792270660403L1275.9197916666667,247.99981999397278L1299.99375,247.48218798637387" style="fill: none;" fill="none"></path></g><g><path stroke="rgb(187, 187, 187)" stroke-width="2px" d="M120.36979166666666,183.68298411369324L144.44375,202.38433670997622L168.51770833333333,207.0904140472412L192.59166666666667,211.9784631729126L216.665625,213.30078148841858L240.73958333333331,214.3322904109955L264.81354166666665,216.47050023078916L288.8875,217.93334913253787L312.9614583333333,219.0421378612518L337.03541666666666,219.28001546859738L361.109375,219.3205254077911L385.18333333333334,219.1624360084534L409.2572916666667,219.3560636043549L433.33125,219.91052556037903L457.4052083333333,220.43105649948117L481.47916666666663,220.89908373355863L505.55312499999997,221.39356935024264L529.6270833333333,221.67637288570407L553.7010416666667,221.90418684482574L577.775,222.07912158966062L601.8489583333334,222.06674480438232L625.9229166666667,222.10803580284121L649.996875,221.4424456357956L674.0708333333333,221.426922082901L698.1447916666667,221.3885976076126L722.21875,221.25685393810275L746.2927083333334,221.45489001274106L770.3666666666667,221.46114599704742L794.4406250000001,221.4794408082962L818.5145833333333,221.72510647773746L842.5885416666667,222.0409623384476L866.6625,221.97925865650177L890.7364583333334,222.1223802566528L914.8104166666666,222.09963941574097L938.884375,222.29962062835693L962.9583333333333,222.44572377204898L987.0322916666667,222.355241060257L1011.1062499999999,222.5695291757584L1035.1802083333334,222.61699354648587L1059.2541666666666,222.51859509944916L1083.328125,222.56780934333798L1107.4020833333334,222.60916042327884L1131.4760416666666,222.5946582555771L1155.55,222.64747738838193L1179.6239583333333,222.64724457263947L1203.6979166666667,222.6464560031891L1227.771875,221.49150967597964L1251.8458333333333,220.95712244510648L1275.9197916666667,221.34796750545505L1299.99375,221.0937852859497" style="fill: none;" fill="none"></path></g></g></g></g></g></g><g transform="translate(51, 378)" clip-path="url(#clip_1)"><clipPath id="clip_1"><rect width="1444" height="22"></rect></clipPath><g><g><line x1="0" y1="0" x2="0" y2="5" style="visibility: inherit;" fill="rgb(0, 0, 0)" stroke="rgb(204, 204, 204)" stroke-width="1px"></line><line x1="120.36979166666666" y1="0" x2="120.36979166666666" y2="5" style="visibility: inherit;" fill="rgb(0, 0, 0)" stroke="rgb(204, 204, 204)" stroke-width="1px"></line><line x1="240.73958333333331" y1="0" x2="240.73958333333331" y2="5" style="visibility: inherit;" fill="rgb(0, 0, 0)" stroke="rgb(204, 204, 204)" stroke-width="1px"></line><line x1="361.109375" y1="0" x2="361.109375" y2="5" style="visibility: inherit;" fill="rgb(0, 0, 0)" stroke="rgb(204, 204, 204)" stroke-width="1px"></line><line x1="481.47916666666663" y1="0" x2="481.47916666666663" y2="5" style="visibility: inherit;" fill="rgb(0, 0, 0)" stroke="rgb(204, 204, 204)" stroke-width="1px"></line><line x1="601.8489583333334" y1="0" x2="601.8489583333334" y2="5" style="visibility: inherit;" fill="rgb(0, 0, 0)" stroke="rgb(204, 204, 204)" stroke-width="1px"></line><line x1="722.21875" y1="0" x2="722.21875" y2="5" style="visibility: inherit;" fill="rgb(0, 0, 0)" stroke="rgb(204, 204, 204)" stroke-width="1px"></line><line x1="842.5885416666667" y1="0" x2="842.5885416666667" y2="5" style="visibility: inherit;" fill="rgb(0, 0, 0)" stroke="rgb(204, 204, 204)" stroke-width="1px"></line><line x1="962.9583333333333" y1="0" x2="962.9583333333333" y2="5" style="visibility: inherit;" fill="rgb(0, 0, 0)" stroke="rgb(204, 204, 204)" stroke-width="1px"></line><line x1="1083.328125" y1="0" x2="1083.328125" y2="5" style="visibility: inherit;" fill="rgb(0, 0, 0)" stroke="rgb(204, 204, 204)" stroke-width="1px"></line><line x1="1203.6979166666667" y1="0" x2="1203.6979166666667" y2="5" style="visibility: inherit;" fill="rgb(0, 0, 0)" stroke="rgb(204, 204, 204)" stroke-width="1px"></line><line x1="1324.0677083333333" y1="0" x2="1324.0677083333333" y2="5" style="visibility: inherit;" fill="rgb(0, 0, 0)" stroke="rgb(204, 204, 204)" stroke-width="1px"></line><line x1="1444.4375" y1="0" x2="1444.4375" y2="5" style="visibility: inherit;" fill="rgb(0, 0, 0)" stroke="rgb(204, 204, 204)" stroke-width="1px"></line></g><g transform="translate(0, 8)"><text x="0" y="0" dx="0em" dy="0.95em" style="text-anchor: middle; visibility: hidden; font-family: Roboto, sans-serif; font-size: 12px; font-weight: 200;" fill="rgb(50, 49, 63)" stroke="none" stroke-width="1px">-5</text><text x="120.36979166666666" y="0" dx="0em" dy="0.95em" style="text-anchor: middle; visibility: inherit; font-family: Roboto, sans-serif; font-size: 12px; font-weight: 200;" fill="rgb(50, 49, 63)" stroke="none" stroke-width="1px">0</text><text x="240.73958333333331" y="0" dx="0em" dy="0.95em" style="text-anchor: middle; visibility: inherit; font-family: Roboto, sans-serif; font-size: 12px; font-weight: 200;" fill="rgb(50, 49, 63)" stroke="none" stroke-width="1px">5</text><text x="361.109375" y="0" dx="0em" dy="0.95em" style="text-anchor: middle; visibility: inherit; font-family: Roboto, sans-serif; font-size: 12px; font-weight: 200;" fill="rgb(50, 49, 63)" stroke="none" stroke-width="1px">10</text><text x="481.47916666666663" y="0" dx="0em" dy="0.95em" style="text-anchor: middle; visibility: inherit; font-family: Roboto, sans-serif; font-size: 12px; font-weight: 200;" fill="rgb(50, 49, 63)" stroke="none" stroke-width="1px">15</text><text x="601.8489583333334" y="0" dx="0em" dy="0.95em" style="text-anchor: middle; visibility: inherit; font-family: Roboto, sans-serif; font-size: 12px; font-weight: 200;" fill="rgb(50, 49, 63)" stroke="none" stroke-width="1px">20</text><text x="722.21875" y="0" dx="0em" dy="0.95em" style="text-anchor: middle; visibility: inherit; font-family: Roboto, sans-serif; font-size: 12px; font-weight: 200;" fill="rgb(50, 49, 63)" stroke="none" stroke-width="1px">25</text><text x="842.5885416666667" y="0" dx="0em" dy="0.95em" style="text-anchor: middle; visibility: inherit; font-family: Roboto, sans-serif; font-size: 12px; font-weight: 200;" fill="rgb(50, 49, 63)" stroke="none" stroke-width="1px">30</text><text x="962.9583333333333" y="0" dx="0em" dy="0.95em" style="text-anchor: middle; visibility: inherit; font-family: Roboto, sans-serif; font-size: 12px; font-weight: 200;" fill="rgb(50, 49, 63)" stroke="none" stroke-width="1px">35</text><text x="1083.328125" y="0" dx="0em" dy="0.95em" style="text-anchor: middle; visibility: inherit; font-family: Roboto, sans-serif; font-size: 12px; font-weight: 200;" fill="rgb(50, 49, 63)" stroke="none" stroke-width="1px">40</text><text x="1203.6979166666667" y="0" dx="0em" dy="0.95em" style="text-anchor: middle; visibility: inherit; font-family: Roboto, sans-serif; font-size: 12px; font-weight: 200;" fill="rgb(50, 49, 63)" stroke="none" stroke-width="1px">45</text><text x="1324.0677083333333" y="0" dx="0em" dy="0.95em" style="text-anchor: middle; visibility: inherit; font-family: Roboto, sans-serif; font-size: 12px; font-weight: 200;" fill="rgb(50, 49, 63)" stroke="none" stroke-width="1px">50</text><text x="1444.4375" y="0" dx="0em" dy="0.95em" style="text-anchor: middle; visibility: hidden; font-family: Roboto, sans-serif; font-size: 12px; font-weight: 200;" fill="rgb(50, 49, 63)" stroke="none" stroke-width="1px">55</text></g><line x1="0" y1="0" x2="1444.4375" y2="0" fill="rgb(0, 0, 0)" stroke="rgb(204, 204, 204)" stroke-width="1px"></line></g></g></g></g></svg>