<svg viewBox="0 0 1496 400" xmlns="http://www.w3.org/2000/svg"><g><g><g><g><g><line x1="51.5625" y1="378" x2="46.5625" y2="378" style="visibility: inherit;" fill="rgb(0, 0, 0)" stroke="rgb(204, 204, 204)" stroke-width="1px"></line><line x1="51.5625" y1="348.9230769230769" x2="46.5625" y2="348.9230769230769" style="visibility: inherit;" fill="rgb(0, 0, 0)" stroke="rgb(204, 204, 204)" stroke-width="1px"></line><line x1="51.5625" y1="319.8461538461538" x2="46.5625" y2="319.8461538461538" style="visibility: inherit;" fill="rgb(0, 0, 0)" stroke="rgb(204, 204, 204)" stroke-width="1px"></line><line x1="51.5625" y1="290.7692307692307" x2="46.5625" y2="290.7692307692307" style="visibility: inherit;" fill="rgb(0, 0, 0)" stroke="rgb(204, 204, 204)" stroke-width="1px"></line><line x1="51.5625" y1="261.6923076923076" x2="46.5625" y2="261.6923076923076" style="visibility: inherit;" fill="rgb(0, 0, 0)" stroke="rgb(204, 204, 204)" stroke-width="1px"></line><line x1="51.5625" y1="232.61538461538447" x2="46.5625" y2="232.61538461538447" style="visibility: inherit;" fill="rgb(0, 0, 0)" stroke="rgb(204, 204, 204)" stroke-width="1px"></line><line x1="51.5625" y1="203.5384615384614" x2="46.5625" y2="203.5384615384614" style="visibility: inherit;" fill="rgb(0, 0, 0)" stroke="rgb(204, 204, 204)" stroke-width="1px"></line><line x1="51.5625" y1="174.4615384615383" x2="46.5625" y2="174.4615384615383" style="visibility: inherit;" fill="rgb(0, 0, 0)" stroke="rgb(204, 204, 204)" stroke-width="1px"></line><line x1="51.5625" y1="145.38461538461522" x2="46.5625" y2="145.38461538461522" style="visibility: inherit;" fill="rgb(0, 0, 0)" stroke="rgb(204, 204, 204)" stroke-width="1px"></line><line x1="51.5625" y1="116.30769230769211" x2="46.5625" y2="116.30769230769211" style="visibility: inherit;" fill="rgb(0, 0, 0)" stroke="rgb(204, 204, 204)" stroke-width="1px"></line><line x1="51.5625" y1="87.2307692307693" x2="46.5625" y2="87.2307692307693" style="visibility: inherit;" fill="rgb(0, 0, 0)" stroke="rgb(204, 204, 204)" stroke-width="1px"></line><line x1="51.5625" y1="58.153846153846196" x2="46.5625" y2="58.153846153846196" style="visibility: inherit;" fill="rgb(0, 0, 0)" stroke="rgb(204, 204, 204)" stroke-width="1px"></line><line x1="51.5625" y1="29.076923076923098" x2="46.5625" y2="29.076923076923098" style="visibility: inherit;" fill="rgb(0, 0, 0)" stroke="rgb(204, 204, 204)" stroke-width="1px"></line><line x1="51.5625" y1="0" x2="46.5625" y2="0" style="visibility: inherit;" fill="rgb(0, 0, 0)" stroke="rgb(204, 204, 204)" stroke-width="1px"></line></g><g transform="translate(41.5625, 0)"><text x="0" y="378" dx="0em" dy="0.3em" style="text-anchor: end; visibility: hidden; font-family: Roboto, sans-serif; font-size: 12px; font-weight: 200;" fill="rgb(50, 49, 63)" stroke="none" stroke-width="1px">1.18</text><text x="0" y="348.9230769230769" dx="0em" dy="0.3em" style="text-anchor: end; visibility: inherit; font-family: Roboto, sans-serif; font-size: 12px; font-weight: 200;" fill="rgb(50, 49, 63)" stroke="none" stroke-width="1px">1.2</text><text x="0" y="319.8461538461538" dx="0em" dy="0.3em" style="text-anchor: end; visibility: inherit; font-family: Roboto, sans-serif; font-size: 12px; font-weight: 200;" fill="rgb(50, 49, 63)" stroke="none" stroke-width="1px">1.22</text><text x="0" y="290.7692307692307" dx="0em" dy="0.3em" style="text-anchor: end; visibility: inherit; font-family: Roboto, sans-serif; font-size: 12px; font-weight: 200;" fill="rgb(50, 49, 63)" stroke="none" stroke-width="1px">1.24</text><text x="0" y="261.6923076923076" dx="0em" dy="0.3em" style="text-anchor: end; visibility: inherit; font-family: Roboto, sans-serif; font-size: 12px; font-weight: 200;" fill="rgb(50, 49, 63)" stroke="none" stroke-width="1px">1.26</text><text x="0" y="232.61538461538447" dx="0em" dy="0.3em" style="text-anchor: end; visibility: inherit; font-family: Roboto, sans-serif; font-size: 12px; font-weight: 200;" fill="rgb(50, 49, 63)" stroke="none" stroke-width="1px">1.28</text><text x="0" y="203.5384615384614" dx="0em" dy="0.3em" style="text-anchor: end; visibility: inherit; font-family: Roboto, sans-serif; font-size: 12px; font-weight: 200;" fill="rgb(50, 49, 63)" stroke="none" stroke-width="1px">1.3</text><text x="0" y="174.4615384615383" dx="0em" dy="0.3em" style="text-anchor: end; visibility: inherit; font-family: Roboto, sans-serif; font-size: 12px; font-weight: 200;" fill="rgb(50, 49, 63)" stroke="none" stroke-width="1px">1.32</text><text x="0" y="145.38461538461522" dx="0em" dy="0.3em" style="text-anchor: end; visibility: inherit; font-family: Roboto, sans-serif; font-size: 12px; font-weight: 200;" fill="rgb(50, 49, 63)" stroke="none" stroke-width="1px">1.34</text><text x="0" y="116.30769230769211" dx="0em" dy="0.3em" style="text-anchor: end; visibility: inherit; font-family: Roboto, sans-serif; font-size: 12px; font-weight: 200;" fill="rgb(50, 49, 63)" stroke="none" stroke-width="1px">1.36</text><text x="0" y="87.2307692307693" dx="0em" dy="0.3em" style="text-anchor: end; visibility: inherit; font-family: Roboto, sans-serif; font-size: 12px; font-weight: 200;" fill="rgb(50, 49, 63)" stroke="none" stroke-width="1px">1.38</text><text x="0" y="58.153846153846196" dx="0em" dy="0.3em" style="text-anchor: end; visibility: inherit; font-family: Roboto, sans-serif; font-size: 12px; font-weight: 200;" fill="rgb(50, 49, 63)" stroke="none" stroke-width="1px">1.4</text><text x="0" y="29.076923076923098" dx="0em" dy="0.3em" style="text-anchor: end; visibility: inherit; font-family: Roboto, sans-serif; font-size: 12px; font-weight: 200;" fill="rgb(50, 49, 63)" stroke="none" stroke-width="1px">1.42</text><text x="0" y="0" dx="0em" dy="0.3em" style="text-anchor: end; visibility: hidden; font-family: Roboto, sans-serif; font-size: 12px; font-weight: 200;" fill="rgb(50, 49, 63)" stroke="none" stroke-width="1px">1.44</text></g><line x1="51.5625" y1="0" x2="51.5625" y2="378" fill="rgb(0, 0, 0)" stroke="rgb(204, 204, 204)" stroke-width="1px"></line></g></g><g transform="translate(51, 0)" clip-path="url(#clip_0)"><clipPath id="clip_0"><rect width="1444" height="378"></rect></clipPath><g><g><g><line x1="0" y1="0" x2="0" y2="378" fill="rgb(0, 0, 0)" stroke="rgb(60, 60, 60)" stroke-width="1px" opacity="0.25"></line><line x1="120.36979166666666" y1="0" x2="120.36979166666666" y2="378" fill="rgb(0, 0, 0)" stroke="rgb(60, 60, 60)" stroke-width="1px" opacity="0.25"></line><line x1="240.73958333333331" y1="0" x2="240.73958333333331" y2="378" fill="rgb(0, 0, 0)" stroke="rgb(60, 60, 60)" stroke-width="1px" opacity="0.25"></line><line x1="361.109375" y1="0" x2="361.109375" y2="378" fill="rgb(0, 0, 0)" stroke="rgb(60, 60, 60)" stroke-width="1px" opacity="0.25"></line><line x1="481.47916666666663" y1="0" x2="481.47916666666663" y2="378" fill="rgb(0, 0, 0)" stroke="rgb(60, 60, 60)" stroke-width="1px" opacity="0.25"></line><line x1="601.8489583333334" y1="0" x2="601.8489583333334" y2="378" fill="rgb(0, 0, 0)" stroke="rgb(60, 60, 60)" stroke-width="1px" opacity="0.25"></line><line x1="722.21875" y1="0" x2="722.21875" y2="378" fill="rgb(0, 0, 0)" stroke="rgb(60, 60, 60)" stroke-width="1px" opacity="0.25"></line><line x1="842.5885416666667" y1="0" x2="842.5885416666667" y2="378" fill="rgb(0, 0, 0)" stroke="rgb(60, 60, 60)" stroke-width="1px" opacity="0.25"></line><line x1="962.9583333333333" y1="0" x2="962.9583333333333" y2="378" fill="rgb(0, 0, 0)" stroke="rgb(60, 60, 60)" stroke-width="1px" opacity="0.25"></line><line x1="1083.328125" y1="0" x2="1083.328125" y2="378" fill="rgb(0, 0, 0)" stroke="rgb(60, 60, 60)" stroke-width="1px" opacity="0.25"></line><line x1="1203.6979166666667" y1="0" x2="1203.6979166666667" y2="378" fill="rgb(0, 0, 0)" stroke="rgb(60, 60, 60)" stroke-width="1px" opacity="0.25"></line><line x1="1324.0677083333333" y1="0" x2="1324.0677083333333" y2="378" fill="rgb(0, 0, 0)" stroke="rgb(60, 60, 60)" stroke-width="1px" opacity="0.25"></line><line x1="1444.4375" y1="0" x2="1444.4375" y2="378" fill="rgb(0, 0, 0)" stroke="rgb(60, 60, 60)" stroke-width="1px" opacity="0.25"></line></g><g><line x1="0" y1="378" x2="1444.4375" y2="378" fill="rgb(0, 0, 0)" stroke="rgb(60, 60, 60)" stroke-width="1px" opacity="0.25"></line><line x1="0" y1="348.9230769230769" x2="1444.4375" y2="348.9230769230769" fill="rgb(0, 0, 0)" stroke="rgb(60, 60, 60)" stroke-width="1px" opacity="0.25"></line><line x1="0" y1="319.8461538461538" x2="1444.4375" y2="319.8461538461538" fill="rgb(0, 0, 0)" stroke="rgb(60, 60, 60)" stroke-width="1px" opacity="0.25"></line><line x1="0" y1="290.7692307692307" x2="1444.4375" y2="290.7692307692307" fill="rgb(0, 0, 0)" stroke="rgb(60, 60, 60)" stroke-width="1px" opacity="0.25"></line><line x1="0" y1="261.6923076923076" x2="1444.4375" y2="261.6923076923076" fill="rgb(0, 0, 0)" stroke="rgb(60, 60, 60)" stroke-width="1px" opacity="0.25"></line><line x1="0" y1="232.61538461538447" x2="1444.4375" y2="232.61538461538447" fill="rgb(0, 0, 0)" stroke="rgb(60, 60, 60)" stroke-width="1px" opacity="0.25"></line><line x1="0" y1="203.5384615384614" x2="1444.4375" y2="203.5384615384614" fill="rgb(0, 0, 0)" stroke="rgb(60, 60, 60)" stroke-width="1px" opacity="0.25"></line><line x1="0" y1="174.4615384615383" x2="1444.4375" y2="174.4615384615383" fill="rgb(0, 0, 0)" stroke="rgb(60, 60, 60)" stroke-width="1px" opacity="0.25"></line><line x1="0" y1="145.38461538461522" x2="1444.4375" y2="145.38461538461522" fill="rgb(0, 0, 0)" stroke="rgb(60, 60, 60)" stroke-width="1px" opacity="0.25"></line><line x1="0" y1="116.30769230769211" x2="1444.4375" y2="116.30769230769211" fill="rgb(0, 0, 0)" stroke="rgb(60, 60, 60)" stroke-width="1px" opacity="0.25"></line><line x1="0" y1="87.2307692307693" x2="1444.4375" y2="87.2307692307693" fill="rgb(0, 0, 0)" stroke="rgb(60, 60, 60)" stroke-width="1px" opacity="0.25"></line><line x1="0" y1="58.153846153846196" x2="1444.4375" y2="58.153846153846196" fill="rgb(0, 0, 0)" stroke="rgb(60, 60, 60)" stroke-width="1px" opacity="0.25"></line><line x1="0" y1="29.076923076923098" x2="1444.4375" y2="29.076923076923098" fill="rgb(0, 0, 0)" stroke="rgb(60, 60, 60)" stroke-width="1px" opacity="0.25"></line><line x1="0" y1="0" x2="1444.4375" y2="0" fill="rgb(0, 0, 0)" stroke="rgb(60, 60, 60)" stroke-width="1px" opacity="0.25"></line></g></g></g><g><g><line x1="0" y1="2093.5384615384614" x2="1444.4375" y2="2093.5384615384614" fill="rgb(0, 0, 0)" stroke="rgb(153, 153, 153)" stroke-width="1.5px"></line></g></g><g><g><line x1="120.36979166666666" y1="0" x2="120.36979166666666" y2="378" fill="rgb(0, 0, 0)" stroke="rgb(153, 153, 153)" stroke-width="1.5px"></line></g></g><g><g><g><g><g><path stroke="rgb(204, 51, 17)" stroke-width="2px" d="M120.36979166666666,-217.48649773230923L144.44375,24.410907378563426L168.51770833333333,80.0534076690673L192.59166666666667,195.2864548609806L216.665625,243.7836493712204L240.73958333333331,214.8849187264075L264.81354166666665,257.9324917426475L288.8875,284.9442016895L312.9614583333333,306.3163402263934L337.03541666666666,319.8036508193382L361.109375,323.49068960776685L385.18333333333334,278.858525276184L409.2572916666667,287.5844361965472L433.33125,288.6669427431546L457.4052083333333,291.2893261175888L481.47916666666663,292.75918491070075L505.55312499999997,297.6431161440335L529.6270833333333,301.7658612177921L553.7010416666667,306.4796000994168L577.775,308.8973020406869L601.8489583333334,310.7805098753708L625.9229166666667,312.2988960192753L649.996875,312.7016730308532L674.0708333333333,262.02005448708155L698.1447916666667,250.92722203181333L722.21875,245.11711164621198L746.2927083333334,237.598838512714L770.3666666666667,228.41711711883536L794.4406250000001,218.6648527292104L818.5145833333333,217.90713280897864L842.5885416666667,212.78888379610493L866.6625,210.7328839302062L890.7364583333334,207.88692811819217L914.8104166666666,205.13872025563157L938.884375,203.81686988243683L962.9583333333333,200.06969184141883L987.0322916666667,201.36901165888852L1011.1062499999999,201.5504692884591L1035.1802083333334,201.37958368888258L1059.2541666666666,202.1359171133774L1083.328125,202.58288867656995L1107.4020833333334,203.07509466317975L1131.4760416666666,203.1990127196678L1155.55,204.16193400896503L1179.6239583333333,204.41670260062574L1203.6979166666667,204.51670360565177L1227.771875,148.07800813821638L1251.8458333333333,133.2022953767042L1275.9197916666667,131.2495894432067L1299.99375,117.01513096002422" style="fill: none;" fill="none"></path></g><g><path stroke="rgb(0, 119, 187)" stroke-width="2px" d="M120.36979166666666,-176.4297592823323L144.44375,29.308010321396956L168.51770833333333,59.99081435570343L192.59166666666667,165.6566943388718L216.665625,226.04412966508124L240.73958333333331,173.1269600574786L264.81354166666665,207.1068509542024L288.8875,234.0308650456941L312.9614583333333,260.435809795673L337.03541666666666,278.6491644199077L361.109375,287.243878181164L385.18333333333334,215.52669294063855L409.2572916666667,210.91052869650028L433.33125,213.41107375805188L457.4052083333333,213.3601200397197L481.47916666666663,226.45071953993568L505.55312499999997,231.77988921678974L529.6270833333333,242.25330470158494L553.7010416666667,248.41541169239915L577.775,256.7456513918362L601.8489583333334,261.393878349891L625.9229166666667,264.053177173321L649.996875,265.2285789343026L674.0708333333333,186.83368360079243L698.1447916666667,171.03213831094587L722.21875,172.9583275134746L746.2927083333334,160.53463246272153L770.3666666666667,152.40231502973108L794.4406250000001,151.20992869597205L818.5145833333333,146.36811227064857L842.5885416666667,143.79442955897397L866.6625,140.3138053233806L890.7364583333334,141.0765512906587L914.8104166666666,140.0645827146676L938.884375,144.79721260070792L962.9583333333333,145.51507076850294L987.0322916666667,147.49897285608137L1011.1062499999999,152.9118522130525L1035.1802083333334,153.97460119540867L1059.2541666666666,159.69077649483307L1083.328125,162.96585273742667L1107.4020833333334,164.21300565279438L1131.4760416666666,165.2121491432189L1155.55,166.09465367977427L1179.6239583333333,166.88252988228425L1203.6979166666667,167.1281129396878L1227.771875,86.10407506502582L1251.8458333333333,73.60186969316914L1275.9197916666667,63.79518534586972L1299.99375,50.9824049289409" style="fill: none;" fill="none"></path></g><g><path stroke="rgb(238, 51, 119)" stroke-width="2px" d="M144.44375,-50.12363719940194L168.51770833333333,6.2420939298775675L192.59166666666667,122.9404938037578L216.665625,178.39720366551316L240.73958333333331,148.19724677159226L264.81354166666665,192.55107208398664L288.8875,227.79423390901997L312.9614583333333,251.33242541093085L337.03541666666666,269.4391931753891L361.109375,275.1090941795935L385.18333333333334,231.89826129033005L409.2572916666667,244.53998279571525L433.33125,251.19082953379697L457.4052083333333,255.75014745272114L481.47916666666663,263.62994934962336L505.55312499999997,268.73069385381837L529.6270833333333,277.79889590923597L553.7010416666667,283.8821459550123L577.775,288.6877401792085L601.8489583333334,292.7425469618576L625.9229166666667,294.0526121212885L649.996875,294.59334545869086L674.0708333333333,243.81917832447922L698.1447916666667,237.50490342653706L722.21875,235.77455674684956L746.2927083333334,236.89137906294593L770.3666666666667,234.39949959975013L794.4406250000001,233.5268738453204L818.5145833333333,231.60311101033128L842.5885416666667,230.8041428419259L866.6625,230.6268446995661L890.7364583333334,231.745920071235L914.8104166666666,227.67239559613733L938.884375,229.90552029242872L962.9583333333333,231.11419795109666L987.0322916666667,233.8104122235224L1011.1062499999999,235.84214841402485L1035.1802083333334,237.3099274635314L1059.2541666666666,238.33940054820127L1083.328125,240.8167218061593L1107.4020833333334,241.88137722015372L1131.4760416666666,242.9520985529972L1155.55,243.8758513377262L1179.6239583333333,244.3132907427273L1203.6979166666667,244.44812745314368L1227.771875,186.89954214829658L1251.8458333333333,178.5434789657592L1275.9197916666667,174.41310816544745L1299.99375,166.1537530605609" style="fill: none;" fill="none"></path></g><g><path stroke="rgb(187, 187, 187)" stroke-width="2px" d="M120.36979166666666,-215.51628729013302L144.44375,29.626731028923533L168.51770833333333,83.51028816516576L192.59166666666667,194.64242759117707L216.665625,243.88590343181897L240.73958333333331,218.59448807056123L264.81354166666665,262.2256024800813L288.8875,288.9177251595716L312.9614583333333,310.96560705625086L337.03541666666666,322.1615601319532L361.109375,327.26334450795093L385.18333333333334,279.9706681691682L409.2572916666667,292.64705206797663L433.33125,298.5703351681048L457.4052083333333,301.0126474087054L481.47916666666663,302.35928139319776L505.55312499999997,306.04320056621833L529.6270833333333,310.65832493855396L553.7010416666667,315.47795743208655L577.775,319.5318976549001L601.8489583333334,321.115102474506L625.9229166666667,323.18080781056324L649.996875,323.7154752291165L674.0708333333333,269.49118676552393L698.1447916666667,260.2824287047752L722.21875,255.74026867059553L746.2927083333334,253.05670617176926L770.3666666666667,243.81536546120265L794.4406250000001,239.59036632684553L818.5145833333333,233.56101630284226L842.5885416666667,229.46773426349336L866.6625,227.30202792241013L890.7364583333334,224.77687256152802L914.8104166666666,220.6969355436471L938.884375,220.0823713082533L962.9583333333333,222.12329303301289L987.0322916666667,220.63800947482758L1011.1062499999999,222.16939401626578L1035.1802083333334,220.82674620701707L1059.2541666666666,221.9298768777113L1083.328125,223.20354652404777L1107.4020833333334,223.73734738276548L1131.4760416666666,224.48900138414814L1155.55,225.05486495678235L1179.6239583333333,225.2262704922602L1203.6979166666667,225.36699980955848L1227.771875,172.5169019332298L1251.8458333333333,162.41021457085236L1275.9197916666667,153.75952104421756L1299.99375,146.49566987844608" style="fill: none;" fill="none"></path></g></g></g></g></g></g><g transform="translate(51, 378)" clip-path="url(#clip_1)"><clipPath id="clip_1"><rect width="1444" height="22"></rect></clipPath><g><g><line x1="0" y1="0" x2="0" y2="5" style="visibility: inherit;" fill="rgb(0, 0, 0)" stroke="rgb(204, 204, 204)" stroke-width="1px"></line><line x1="120.36979166666666" y1="0" x2="120.36979166666666" y2="5" style="visibility: inherit;" fill="rgb(0, 0, 0)" stroke="rgb(204, 204, 204)" stroke-width="1px"></line><line x1="240.73958333333331" y1="0" x2="240.73958333333331" y2="5" style="visibility: inherit;" fill="rgb(0, 0, 0)" stroke="rgb(204, 204, 204)" stroke-width="1px"></line><line x1="361.109375" y1="0" x2="361.109375" y2="5" style="visibility: inherit;" fill="rgb(0, 0, 0)" stroke="rgb(204, 204, 204)" stroke-width="1px"></line><line x1="481.47916666666663" y1="0" x2="481.47916666666663" y2="5" style="visibility: inherit;" fill="rgb(0, 0, 0)" stroke="rgb(204, 204, 204)" stroke-width="1px"></line><line x1="601.8489583333334" y1="0" x2="601.8489583333334" y2="5" style="visibility: inherit;" fill="rgb(0, 0, 0)" stroke="rgb(204, 204, 204)" stroke-width="1px"></line><line x1="722.21875" y1="0" x2="722.21875" y2="5" style="visibility: inherit;" fill="rgb(0, 0, 0)" stroke="rgb(204, 204, 204)" stroke-width="1px"></line><line x1="842.5885416666667" y1="0" x2="842.5885416666667" y2="5" style="visibility: inherit;" fill="rgb(0, 0, 0)" stroke="rgb(204, 204, 204)" stroke-width="1px"></line><line x1="962.9583333333333" y1="0" x2="962.9583333333333" y2="5" style="visibility: inherit;" fill="rgb(0, 0, 0)" stroke="rgb(204, 204, 204)" stroke-width="1px"></line><line x1="1083.328125" y1="0" x2="1083.328125" y2="5" style="visibility: inherit;" fill="rgb(0, 0, 0)" stroke="rgb(204, 204, 204)" stroke-width="1px"></line><line x1="1203.6979166666667" y1="0" x2="1203.6979166666667" y2="5" style="visibility: inherit;" fill="rgb(0, 0, 0)" stroke="rgb(204, 204, 204)" stroke-width="1px"></line><line x1="1324.0677083333333" y1="0" x2="1324.0677083333333" y2="5" style="visibility: inherit;" fill="rgb(0, 0, 0)" stroke="rgb(204, 204, 204)" stroke-width="1px"></line><line x1="1444.4375" y1="0" x2="1444.4375" y2="5" style="visibility: inherit;" fill="rgb(0, 0, 0)" stroke="rgb(204, 204, 204)" stroke-width="1px"></line></g><g transform="translate(0, 8)"><text x="0" y="0" dx="0em" dy="0.95em" style="text-anchor: middle; visibility: hidden; font-family: Roboto, sans-serif; font-size: 12px; font-weight: 200;" fill="rgb(50, 49, 63)" stroke="none" stroke-width="1px">-5</text><text x="120.36979166666666" y="0" dx="0em" dy="0.95em" style="text-anchor: middle; visibility: inherit; font-family: Roboto, sans-serif; font-size: 12px; font-weight: 200;" fill="rgb(50, 49, 63)" stroke="none" stroke-width="1px">0</text><text x="240.73958333333331" y="0" dx="0em" dy="0.95em" style="text-anchor: middle; visibility: inherit; font-family: Roboto, sans-serif; font-size: 12px; font-weight: 200;" fill="rgb(50, 49, 63)" stroke="none" stroke-width="1px">5</text><text x="361.109375" y="0" dx="0em" dy="0.95em" style="text-anchor: middle; visibility: inherit; font-family: Roboto, sans-serif; font-size: 12px; font-weight: 200;" fill="rgb(50, 49, 63)" stroke="none" stroke-width="1px">10</text><text x="481.47916666666663" y="0" dx="0em" dy="0.95em" style="text-anchor: middle; visibility: inherit; font-family: Roboto, sans-serif; font-size: 12px; font-weight: 200;" fill="rgb(50, 49, 63)" stroke="none" stroke-width="1px">15</text><text x="601.8489583333334" y="0" dx="0em" dy="0.95em" style="text-anchor: middle; visibility: inherit; font-family: Roboto, sans-serif; font-size: 12px; font-weight: 200;" fill="rgb(50, 49, 63)" stroke="none" stroke-width="1px">20</text><text x="722.21875" y="0" dx="0em" dy="0.95em" style="text-anchor: middle; visibility: inherit; font-family: Roboto, sans-serif; font-size: 12px; font-weight: 200;" fill="rgb(50, 49, 63)" stroke="none" stroke-width="1px">25</text><text x="842.5885416666667" y="0" dx="0em" dy="0.95em" style="text-anchor: middle; visibility: inherit; font-family: Roboto, sans-serif; font-size: 12px; font-weight: 200;" fill="rgb(50, 49, 63)" stroke="none" stroke-width="1px">30</text><text x="962.9583333333333" y="0" dx="0em" dy="0.95em" style="text-anchor: middle; visibility: inherit; font-family: Roboto, sans-serif; font-size: 12px; font-weight: 200;" fill="rgb(50, 49, 63)" stroke="none" stroke-width="1px">35</text><text x="1083.328125" y="0" dx="0em" dy="0.95em" style="text-anchor: middle; visibility: inherit; font-family: Roboto, sans-serif; font-size: 12px; font-weight: 200;" fill="rgb(50, 49, 63)" stroke="none" stroke-width="1px">40</text><text x="1203.6979166666667" y="0" dx="0em" dy="0.95em" style="text-anchor: middle; visibility: inherit; font-family: Roboto, sans-serif; font-size: 12px; font-weight: 200;" fill="rgb(50, 49, 63)" stroke="none" stroke-width="1px">45</text><text x="1324.0677083333333" y="0" dx="0em" dy="0.95em" style="text-anchor: middle; visibility: inherit; font-family: Roboto, sans-serif; font-size: 12px; font-weight: 200;" fill="rgb(50, 49, 63)" stroke="none" stroke-width="1px">50</text><text x="1444.4375" y="0" dx="0em" dy="0.95em" style="text-anchor: middle; visibility: hidden; font-family: Roboto, sans-serif; font-size: 12px; font-weight: 200;" fill="rgb(50, 49, 63)" stroke="none" stroke-width="1px">55</text></g><line x1="0" y1="0" x2="1444.4375" y2="0" fill="rgb(0, 0, 0)" stroke="rgb(204, 204, 204)" stroke-width="1px"></line></g></g></g></g></svg>