<svg viewBox="0 0 1496 400" xmlns="http://www.w3.org/2000/svg"><g><g><g><g><g><line x1="50" y1="378" x2="45" y2="378" style="visibility: inherit;" fill="rgb(0, 0, 0)" stroke="rgb(204, 204, 204)" stroke-width="1px"></line><line x1="50" y1="340.2" x2="45" y2="340.2" style="visibility: inherit;" fill="rgb(0, 0, 0)" stroke="rgb(204, 204, 204)" stroke-width="1px"></line><line x1="50" y1="302.3999999999999" x2="45" y2="302.3999999999999" style="visibility: inherit;" fill="rgb(0, 0, 0)" stroke="rgb(204, 204, 204)" stroke-width="1px"></line><line x1="50" y1="264.5999999999999" x2="45" y2="264.5999999999999" style="visibility: inherit;" fill="rgb(0, 0, 0)" stroke="rgb(204, 204, 204)" stroke-width="1px"></line><line x1="50" y1="226.7999999999998" x2="45" y2="226.7999999999998" style="visibility: inherit;" fill="rgb(0, 0, 0)" stroke="rgb(204, 204, 204)" stroke-width="1px"></line><line x1="50" y1="188.9999999999998" x2="45" y2="188.9999999999998" style="visibility: inherit;" fill="rgb(0, 0, 0)" stroke="rgb(204, 204, 204)" stroke-width="1px"></line><line x1="50" y1="151.19999999999976" x2="45" y2="151.19999999999976" style="visibility: inherit;" fill="rgb(0, 0, 0)" stroke="rgb(204, 204, 204)" stroke-width="1px"></line><line x1="50" y1="113.39999999999972" x2="45" y2="113.39999999999972" style="visibility: inherit;" fill="rgb(0, 0, 0)" stroke="rgb(204, 204, 204)" stroke-width="1px"></line><line x1="50" y1="75.59999999999965" x2="45" y2="75.59999999999965" style="visibility: inherit;" fill="rgb(0, 0, 0)" stroke="rgb(204, 204, 204)" stroke-width="1px"></line><line x1="50" y1="37.79999999999961" x2="45" y2="37.79999999999961" style="visibility: inherit;" fill="rgb(0, 0, 0)" stroke="rgb(204, 204, 204)" stroke-width="1px"></line><line x1="50" y1="0" x2="45" y2="0" style="visibility: inherit;" fill="rgb(0, 0, 0)" stroke="rgb(204, 204, 204)" stroke-width="1px"></line></g><g transform="translate(40, 0)"><text x="0" y="378" dx="0em" dy="0.3em" style="text-anchor: end; visibility: hidden; font-family: Roboto, sans-serif; font-size: 12px; font-weight: 200;" fill="rgb(50, 49, 63)" stroke="none" stroke-width="1px">0.59</text><text x="0" y="340.2" dx="0em" dy="0.3em" style="text-anchor: end; visibility: inherit; font-family: Roboto, sans-serif; font-size: 12px; font-weight: 200;" fill="rgb(50, 49, 63)" stroke="none" stroke-width="1px">0.6</text><text x="0" y="302.3999999999999" dx="0em" dy="0.3em" style="text-anchor: end; visibility: inherit; font-family: Roboto, sans-serif; font-size: 12px; font-weight: 200;" fill="rgb(50, 49, 63)" stroke="none" stroke-width="1px">0.61</text><text x="0" y="264.5999999999999" dx="0em" dy="0.3em" style="text-anchor: end; visibility: inherit; font-family: Roboto, sans-serif; font-size: 12px; font-weight: 200;" fill="rgb(50, 49, 63)" stroke="none" stroke-width="1px">0.62</text><text x="0" y="226.7999999999998" dx="0em" dy="0.3em" style="text-anchor: end; visibility: inherit; font-family: Roboto, sans-serif; font-size: 12px; font-weight: 200;" fill="rgb(50, 49, 63)" stroke="none" stroke-width="1px">0.63</text><text x="0" y="188.9999999999998" dx="0em" dy="0.3em" style="text-anchor: end; visibility: inherit; font-family: Roboto, sans-serif; font-size: 12px; font-weight: 200;" fill="rgb(50, 49, 63)" stroke="none" stroke-width="1px">0.64</text><text x="0" y="151.19999999999976" dx="0em" dy="0.3em" style="text-anchor: end; visibility: inherit; font-family: Roboto, sans-serif; font-size: 12px; font-weight: 200;" fill="rgb(50, 49, 63)" stroke="none" stroke-width="1px">0.65</text><text x="0" y="113.39999999999972" dx="0em" dy="0.3em" style="text-anchor: end; visibility: inherit; font-family: Roboto, sans-serif; font-size: 12px; font-weight: 200;" fill="rgb(50, 49, 63)" stroke="none" stroke-width="1px">0.66</text><text x="0" y="75.59999999999965" dx="0em" dy="0.3em" style="text-anchor: end; visibility: inherit; font-family: Roboto, sans-serif; font-size: 12px; font-weight: 200;" fill="rgb(50, 49, 63)" stroke="none" stroke-width="1px">0.67</text><text x="0" y="37.79999999999961" dx="0em" dy="0.3em" style="text-anchor: end; visibility: inherit; font-family: Roboto, sans-serif; font-size: 12px; font-weight: 200;" fill="rgb(50, 49, 63)" stroke="none" stroke-width="1px">0.68</text><text x="0" y="0" dx="0em" dy="0.3em" style="text-anchor: end; visibility: hidden; font-family: Roboto, sans-serif; font-size: 12px; font-weight: 200;" fill="rgb(50, 49, 63)" stroke="none" stroke-width="1px">0.69</text></g><line x1="50" y1="0" x2="50" y2="378" fill="rgb(0, 0, 0)" stroke="rgb(204, 204, 204)" stroke-width="1px"></line></g></g><g transform="translate(50, 0)" clip-path="url(#clip_0)"><clipPath id="clip_0"><rect width="1446" height="378"></rect></clipPath><g><g><g><line x1="0" y1="0" x2="0" y2="378" fill="rgb(0, 0, 0)" stroke="rgb(60, 60, 60)" stroke-width="1px" opacity="0.25"></line><line x1="120.5" y1="0" x2="120.5" y2="378" fill="rgb(0, 0, 0)" stroke="rgb(60, 60, 60)" stroke-width="1px" opacity="0.25"></line><line x1="241" y1="0" x2="241" y2="378" fill="rgb(0, 0, 0)" stroke="rgb(60, 60, 60)" stroke-width="1px" opacity="0.25"></line><line x1="361.5" y1="0" x2="361.5" y2="378" fill="rgb(0, 0, 0)" stroke="rgb(60, 60, 60)" stroke-width="1px" opacity="0.25"></line><line x1="482" y1="0" x2="482" y2="378" fill="rgb(0, 0, 0)" stroke="rgb(60, 60, 60)" stroke-width="1px" opacity="0.25"></line><line x1="602.5" y1="0" x2="602.5" y2="378" fill="rgb(0, 0, 0)" stroke="rgb(60, 60, 60)" stroke-width="1px" opacity="0.25"></line><line x1="723" y1="0" x2="723" y2="378" fill="rgb(0, 0, 0)" stroke="rgb(60, 60, 60)" stroke-width="1px" opacity="0.25"></line><line x1="843.5" y1="0" x2="843.5" y2="378" fill="rgb(0, 0, 0)" stroke="rgb(60, 60, 60)" stroke-width="1px" opacity="0.25"></line><line x1="964" y1="0" x2="964" y2="378" fill="rgb(0, 0, 0)" stroke="rgb(60, 60, 60)" stroke-width="1px" opacity="0.25"></line><line x1="1084.5" y1="0" x2="1084.5" y2="378" fill="rgb(0, 0, 0)" stroke="rgb(60, 60, 60)" stroke-width="1px" opacity="0.25"></line><line x1="1205" y1="0" x2="1205" y2="378" fill="rgb(0, 0, 0)" stroke="rgb(60, 60, 60)" stroke-width="1px" opacity="0.25"></line><line x1="1325.5" y1="0" x2="1325.5" y2="378" fill="rgb(0, 0, 0)" stroke="rgb(60, 60, 60)" stroke-width="1px" opacity="0.25"></line><line x1="1446" y1="0" x2="1446" y2="378" fill="rgb(0, 0, 0)" stroke="rgb(60, 60, 60)" stroke-width="1px" opacity="0.25"></line></g><g><line x1="0" y1="378" x2="1446" y2="378" fill="rgb(0, 0, 0)" stroke="rgb(60, 60, 60)" stroke-width="1px" opacity="0.25"></line><line x1="0" y1="340.2" x2="1446" y2="340.2" fill="rgb(0, 0, 0)" stroke="rgb(60, 60, 60)" stroke-width="1px" opacity="0.25"></line><line x1="0" y1="302.3999999999999" x2="1446" y2="302.3999999999999" fill="rgb(0, 0, 0)" stroke="rgb(60, 60, 60)" stroke-width="1px" opacity="0.25"></line><line x1="0" y1="264.5999999999999" x2="1446" y2="264.5999999999999" fill="rgb(0, 0, 0)" stroke="rgb(60, 60, 60)" stroke-width="1px" opacity="0.25"></line><line x1="0" y1="226.7999999999998" x2="1446" y2="226.7999999999998" fill="rgb(0, 0, 0)" stroke="rgb(60, 60, 60)" stroke-width="1px" opacity="0.25"></line><line x1="0" y1="188.9999999999998" x2="1446" y2="188.9999999999998" fill="rgb(0, 0, 0)" stroke="rgb(60, 60, 60)" stroke-width="1px" opacity="0.25"></line><line x1="0" y1="151.19999999999976" x2="1446" y2="151.19999999999976" fill="rgb(0, 0, 0)" stroke="rgb(60, 60, 60)" stroke-width="1px" opacity="0.25"></line><line x1="0" y1="113.39999999999972" x2="1446" y2="113.39999999999972" fill="rgb(0, 0, 0)" stroke="rgb(60, 60, 60)" stroke-width="1px" opacity="0.25"></line><line x1="0" y1="75.59999999999965" x2="1446" y2="75.59999999999965" fill="rgb(0, 0, 0)" stroke="rgb(60, 60, 60)" stroke-width="1px" opacity="0.25"></line><line x1="0" y1="37.79999999999961" x2="1446" y2="37.79999999999961" fill="rgb(0, 0, 0)" stroke="rgb(60, 60, 60)" stroke-width="1px" opacity="0.25"></line><line x1="0" y1="0" x2="1446" y2="0" fill="rgb(0, 0, 0)" stroke="rgb(60, 60, 60)" stroke-width="1px" opacity="0.25"></line></g></g></g><g><g><line x1="0" y1="2608.2000000000003" x2="1446" y2="2608.2000000000003" fill="rgb(0, 0, 0)" stroke="rgb(153, 153, 153)" stroke-width="1.5px"></line></g></g><g><g><line x1="120.5" y1="0" x2="120.5" y2="378" fill="rgb(0, 0, 0)" stroke="rgb(153, 153, 153)" stroke-width="1.5px"></line></g></g><g><g><g><g><g><path stroke="rgb(204, 51, 17)" stroke-width="2px" d="M120.5,368.52757759094226L144.6,243.0839771747588L168.7,216.92397422790512L192.8,144.67253751754745L216.9,104.56048793792709L241,137.4472136020659L265.09999999999997,112.90670700073227L289.2,91.35577983856182L313.3,75.53527421951274L337.4,66.44149131774883L361.5,59.58994932174662L385.6,91.10659189224224L409.7,85.99914021491985L433.8,82.01303429603557L457.9,84.00608725547771L482,82.2619969367979L506.09999999999997,73.91577787399272L530.1999999999999,70.67701048850994L554.3000000000001,63.82546849250773L578.4,66.44149131774883L602.5,64.19925041198711L626.6,63.95006246566752L650.7,61.95700950622538L674.8,90.35925335884075L698.9,93.9718026638029L723,87.12048597335796L747.1,89.98547143936138L771.2,95.2175170898436L795.3000000000001,98.20732183456406L819.4,96.58782548904404L843.5,95.2175170898436L867.6,96.33863754272446L891.7,92.85068221092205L915.8,89.98547143936138L939.9,89.36272687911968L964,89.23813290595989L988.1,93.59802074432353L1012.1999999999999,92.35230631828288L1036.3,91.35577983856182L1060.3999999999999,89.98547143936138L1084.5,91.6049677848814L1108.6000000000001,89.86087746620159L1132.7,90.11006541252117L1156.8,88.11701245307903L1180.9,88.61516304016094L1205,90.8576292514799L1229.1,109.29415769577011L1253.2,117.5157827854155L1277.3,113.77863950729355L1301.4,116.64385027885422" style="fill: none;" fill="none"></path></g><g><path stroke="rgb(255, 112, 67)" stroke-width="2px" d="M120.5,484.7557301044463L144.6,347.7070910453795L168.7,328.5029465675353L192.8,258.04561800956714L216.9,215.64649171829208L241,254.80324573516833L265.09999999999997,228.11692900657638L289.2,203.92451949119553L313.3,188.96017498970016L337.4,169.00756545066818L361.5,160.77715344429L385.6,213.65141100883469L409.7,203.42569298744186L433.8,200.4327339649199L457.9,187.0894629478453L482,185.71780271530136L506.09999999999997,179.48269672393783L530.1999999999999,166.88766546249374L554.3000000000001,162.64764018058762" style="fill: none;" fill="none"></path></g><g><path stroke="rgb(204, 51, 17)" stroke-width="2px" d="M120.5,401.57877631187426L144.6,284.98157329559314L168.7,267.3982769966124L192.8,183.7224967002867L216.9,145.9376282215117L241,179.10846419334396L265.09999999999997,160.15373296737656L289.2,144.81515593528732L313.3,123.3662921905516L337.4,107.90312118530258L361.5,100.54554290771469L385.6,155.04087395668014L409.7,142.94466919898971L433.8,140.57535595893845" style="fill: none;" fill="none"></path></g><g><path stroke="rgb(0, 153, 136)" stroke-width="2px" d="M120.5,406.0682148456572L144.6,288.8473660469054L168.7,269.01957578659045L192.8,195.44469423294052L216.9,143.56808967590317L241,201.43038697242721L265.09999999999997,168.50873894691452L289.2,144.69056196212753L313.3,121.24639220237717L337.4,103.66309590339645L361.5,92.43995018005351L385.6,141.57300896644577L409.7,137.7072162151335L433.8,138.33063669204697L457.9,126.7332584381102L482,117.13118619918808L506.09999999999997,114.51245970725998L530.1999999999999,101.54319591522201L554.3000000000001,96.67975015640243L578.4,87.57650442123393L602.5,84.8329586505888L626.6,82.58846468925456L650.7,81.84022493362407L674.8,129.975630712509L698.9,134.21543068885788" style="fill: none;" fill="none"></path></g><g><path stroke="rgb(0, 119, 187)" stroke-width="2px" d="M120.5,350.57523078918445L144.6,245.45058674812304L168.7,216.02072424888595L192.8,156.16312093734726L216.9,115.88411993980392L241,157.53500647544845L265.09999999999997,120.49815244674667L289.2,105.78322119712814L313.3,95.55750317573532L337.4,81.96481890678386L361.5,79.59550566673259L385.6,125.36159820556625L409.7,113.76421995162949L433.8,109.6490139484404L457.9,103.41368265151962L482,95.93151040077194L506.09999999999997,95.05867667198166L530.1999999999999,87.82591767311077L554.3000000000001,90.6940574169157L578.4,80.96716589927654L602.5,80.34374542236309L626.6,78.97185988426189L650.7,79.47068638801555L674.8,113.63940067291244L698.9,120.99697895050033L723,120.7475656986235L747.1,118.1288392066954L771.2,119.99932594299301L795.3000000000001,125.23677892684921L819.4,122.99205965995773L843.5,123.98971266746506L867.6,122.49345846176132L891.7,123.3662921905516L915.8,119.99932594299301L939.9,119.99932594299301L964,119.25108618736252" style="fill: none;" fill="none"></path></g><g><path stroke="rgb(187, 187, 187)" stroke-width="2px" d="M120.5,341.0977525234221L144.6,239.21548075675952L168.7,214.7736579895018L192.8,144.5657426834105L216.9,109.0253681659697L241,143.81750292778L265.09999999999997,122.99205965995773L289.2,104.41133565902695L313.3,90.44464416503887L337.4,76.47795267105083L361.5,70.61685390472392L385.6,118.87685365676865L409.7,116.88177294731125L433.8,108.40194768905624L457.9,102.66566820144638L482,95.80691642761215L506.09999999999997,90.44464416503887L530.1999999999999,80.84257192611675L554.3000000000001,78.97185988426189L578.4,76.35313339233379L602.5,73.36039967536907L626.6,69.74402017593364L650.7,69.86861414909343L674.8,111.27008743286117L698.9,116.13353319168075L723,120.8721596717833L747.1,111.02067418098434L771.2,117.25578017234787L795.3000000000001,120.1239199161528L819.4,119.00167293548569L843.5,122.36863918304428L867.6,117.13118619918808L891.7,114.76164765357956L915.8,115.88411993980392L939.9,114.8864669322966L964,115.38529343605026L988.1,110.8958549022673L1012.1999999999999,110.27243442535385L1036.3,109.52419466972336" style="fill: none;" fill="none"></path></g><g><path stroke="rgb(51, 187, 238)" stroke-width="2px" d="M120.5,344.0907115459441L144.6,235.2248687267302L168.7,215.5218977451323L192.8,138.7046439170836L216.9,104.91016216278061L241,145.06456918716415L265.09999999999997,118.00401992797836L289.2,104.53615493774399L313.3,86.45425744056682L337.4,71.61450691223125L361.5,66.12764067649822L385.6,121.495805454254L409.7,110.14784045219406L433.8,104.78556818962082L457.9,98.30104894638046L482,94.68466944694504L506.09999999999997,91.44229717254619" style="fill: none;" fill="none"></path></g><g><path stroke="rgb(238, 51, 119)" stroke-width="2px" d="M120.5,355.1892632961272L144.6,246.6976530075072L168.7,216.6441447257994L192.8,154.54204745292648L216.9,109.52419466972336L241,162.77245945930466L265.09999999999997,132.22012467384323L289.2,116.13353319168075L313.3,98.42564291954025L337.4,82.58846468925456L361.5,77.84961290359477L385.6,125.36159820556625L409.7,114.76164765357956L433.8,114.63705368041977L457.9,104.66074891090378L482,104.66074891090378L506.09999999999997,94.06102366447429L530.1999999999999,92.19053692817668L554.3000000000001,86.82826466560344L578.4,82.71305866241435L602.5,80.96716589927654L626.6,77.97443218231182L650.7,79.47068638801555L674.8,120.99697895050033L698.9,123.11687893867477L723,122.36863918304428L747.1,120.49815244674667L771.2,123.11687893867477L795.3000000000001,134.83885116577133L819.4,126.10983796119675L843.5,126.23443193435654" style="fill: none;" fill="none"></path></g></g></g></g></g></g><g transform="translate(50, 378)" clip-path="url(#clip_1)"><clipPath id="clip_1"><rect width="1446" height="22"></rect></clipPath><g><g><line x1="0" y1="0" x2="0" y2="5" style="visibility: inherit;" fill="rgb(0, 0, 0)" stroke="rgb(204, 204, 204)" stroke-width="1px"></line><line x1="120.5" y1="0" x2="120.5" y2="5" style="visibility: inherit;" fill="rgb(0, 0, 0)" stroke="rgb(204, 204, 204)" stroke-width="1px"></line><line x1="241" y1="0" x2="241" y2="5" style="visibility: inherit;" fill="rgb(0, 0, 0)" stroke="rgb(204, 204, 204)" stroke-width="1px"></line><line x1="361.5" y1="0" x2="361.5" y2="5" style="visibility: inherit;" fill="rgb(0, 0, 0)" stroke="rgb(204, 204, 204)" stroke-width="1px"></line><line x1="482" y1="0" x2="482" y2="5" style="visibility: inherit;" fill="rgb(0, 0, 0)" stroke="rgb(204, 204, 204)" stroke-width="1px"></line><line x1="602.5" y1="0" x2="602.5" y2="5" style="visibility: inherit;" fill="rgb(0, 0, 0)" stroke="rgb(204, 204, 204)" stroke-width="1px"></line><line x1="723" y1="0" x2="723" y2="5" style="visibility: inherit;" fill="rgb(0, 0, 0)" stroke="rgb(204, 204, 204)" stroke-width="1px"></line><line x1="843.5" y1="0" x2="843.5" y2="5" style="visibility: inherit;" fill="rgb(0, 0, 0)" stroke="rgb(204, 204, 204)" stroke-width="1px"></line><line x1="964" y1="0" x2="964" y2="5" style="visibility: inherit;" fill="rgb(0, 0, 0)" stroke="rgb(204, 204, 204)" stroke-width="1px"></line><line x1="1084.5" y1="0" x2="1084.5" y2="5" style="visibility: inherit;" fill="rgb(0, 0, 0)" stroke="rgb(204, 204, 204)" stroke-width="1px"></line><line x1="1205" y1="0" x2="1205" y2="5" style="visibility: inherit;" fill="rgb(0, 0, 0)" stroke="rgb(204, 204, 204)" stroke-width="1px"></line><line x1="1325.5" y1="0" x2="1325.5" y2="5" style="visibility: inherit;" fill="rgb(0, 0, 0)" stroke="rgb(204, 204, 204)" stroke-width="1px"></line><line x1="1446" y1="0" x2="1446" y2="5" style="visibility: inherit;" fill="rgb(0, 0, 0)" stroke="rgb(204, 204, 204)" stroke-width="1px"></line></g><g transform="translate(0, 8)"><text x="0" y="0" dx="0em" dy="0.95em" style="text-anchor: middle; visibility: hidden; font-family: Roboto, sans-serif; font-size: 12px; font-weight: 200;" fill="rgb(50, 49, 63)" stroke="none" stroke-width="1px">-5</text><text x="120.5" y="0" dx="0em" dy="0.95em" style="text-anchor: middle; visibility: inherit; font-family: Roboto, sans-serif; font-size: 12px; font-weight: 200;" fill="rgb(50, 49, 63)" stroke="none" stroke-width="1px">0</text><text x="241" y="0" dx="0em" dy="0.95em" style="text-anchor: middle; visibility: inherit; font-family: Roboto, sans-serif; font-size: 12px; font-weight: 200;" fill="rgb(50, 49, 63)" stroke="none" stroke-width="1px">5</text><text x="361.5" y="0" dx="0em" dy="0.95em" style="text-anchor: middle; visibility: inherit; font-family: Roboto, sans-serif; font-size: 12px; font-weight: 200;" fill="rgb(50, 49, 63)" stroke="none" stroke-width="1px">10</text><text x="482" y="0" dx="0em" dy="0.95em" style="text-anchor: middle; visibility: inherit; font-family: Roboto, sans-serif; font-size: 12px; font-weight: 200;" fill="rgb(50, 49, 63)" stroke="none" stroke-width="1px">15</text><text x="602.5" y="0" dx="0em" dy="0.95em" style="text-anchor: middle; visibility: inherit; font-family: Roboto, sans-serif; font-size: 12px; font-weight: 200;" fill="rgb(50, 49, 63)" stroke="none" stroke-width="1px">20</text><text x="723" y="0" dx="0em" dy="0.95em" style="text-anchor: middle; visibility: inherit; font-family: Roboto, sans-serif; font-size: 12px; font-weight: 200;" fill="rgb(50, 49, 63)" stroke="none" stroke-width="1px">25</text><text x="843.5" y="0" dx="0em" dy="0.95em" style="text-anchor: middle; visibility: inherit; font-family: Roboto, sans-serif; font-size: 12px; font-weight: 200;" fill="rgb(50, 49, 63)" stroke="none" stroke-width="1px">30</text><text x="964" y="0" dx="0em" dy="0.95em" style="text-anchor: middle; visibility: inherit; font-family: Roboto, sans-serif; font-size: 12px; font-weight: 200;" fill="rgb(50, 49, 63)" stroke="none" stroke-width="1px">35</text><text x="1084.5" y="0" dx="0em" dy="0.95em" style="text-anchor: middle; visibility: inherit; font-family: Roboto, sans-serif; font-size: 12px; font-weight: 200;" fill="rgb(50, 49, 63)" stroke="none" stroke-width="1px">40</text><text x="1205" y="0" dx="0em" dy="0.95em" style="text-anchor: middle; visibility: inherit; font-family: Roboto, sans-serif; font-size: 12px; font-weight: 200;" fill="rgb(50, 49, 63)" stroke="none" stroke-width="1px">45</text><text x="1325.5" y="0" dx="0em" dy="0.95em" style="text-anchor: middle; visibility: inherit; font-family: Roboto, sans-serif; font-size: 12px; font-weight: 200;" fill="rgb(50, 49, 63)" stroke="none" stroke-width="1px">50</text><text x="1446" y="0" dx="0em" dy="0.95em" style="text-anchor: middle; visibility: hidden; font-family: Roboto, sans-serif; font-size: 12px; font-weight: 200;" fill="rgb(50, 49, 63)" stroke="none" stroke-width="1px">55</text></g><line x1="0" y1="0" x2="1446" y2="0" fill="rgb(0, 0, 0)" stroke="rgb(204, 204, 204)" stroke-width="1px"></line></g></g></g></g></svg>