<svg viewBox="0 0 1496 400" xmlns="http://www.w3.org/2000/svg"><g><g><g><g><g><line x1="51.5625" y1="378" x2="46.5625" y2="378" style="visibility: inherit;" fill="rgb(0, 0, 0)" stroke="rgb(204, 204, 204)" stroke-width="1px"></line><line x1="51.5625" y1="352.79999999999995" x2="46.5625" y2="352.79999999999995" style="visibility: inherit;" fill="rgb(0, 0, 0)" stroke="rgb(204, 204, 204)" stroke-width="1px"></line><line x1="51.5625" y1="327.59999999999997" x2="46.5625" y2="327.59999999999997" style="visibility: inherit;" fill="rgb(0, 0, 0)" stroke="rgb(204, 204, 204)" stroke-width="1px"></line><line x1="51.5625" y1="302.3999999999999" x2="46.5625" y2="302.3999999999999" style="visibility: inherit;" fill="rgb(0, 0, 0)" stroke="rgb(204, 204, 204)" stroke-width="1px"></line><line x1="51.5625" y1="277.19999999999993" x2="46.5625" y2="277.19999999999993" style="visibility: inherit;" fill="rgb(0, 0, 0)" stroke="rgb(204, 204, 204)" stroke-width="1px"></line><line x1="51.5625" y1="251.99999999999991" x2="46.5625" y2="251.99999999999991" style="visibility: inherit;" fill="rgb(0, 0, 0)" stroke="rgb(204, 204, 204)" stroke-width="1px"></line><line x1="51.5625" y1="226.79999999999987" x2="46.5625" y2="226.79999999999987" style="visibility: inherit;" fill="rgb(0, 0, 0)" stroke="rgb(204, 204, 204)" stroke-width="1px"></line><line x1="51.5625" y1="201.59999999999988" x2="46.5625" y2="201.59999999999988" style="visibility: inherit;" fill="rgb(0, 0, 0)" stroke="rgb(204, 204, 204)" stroke-width="1px"></line><line x1="51.5625" y1="176.39999999999984" x2="46.5625" y2="176.39999999999984" style="visibility: inherit;" fill="rgb(0, 0, 0)" stroke="rgb(204, 204, 204)" stroke-width="1px"></line><line x1="51.5625" y1="151.19999999999985" x2="46.5625" y2="151.19999999999985" style="visibility: inherit;" fill="rgb(0, 0, 0)" stroke="rgb(204, 204, 204)" stroke-width="1px"></line><line x1="51.5625" y1="126.0000000000001" x2="46.5625" y2="126.0000000000001" style="visibility: inherit;" fill="rgb(0, 0, 0)" stroke="rgb(204, 204, 204)" stroke-width="1px"></line><line x1="51.5625" y1="100.80000000000007" x2="46.5625" y2="100.80000000000007" style="visibility: inherit;" fill="rgb(0, 0, 0)" stroke="rgb(204, 204, 204)" stroke-width="1px"></line><line x1="51.5625" y1="75.60000000000007" x2="46.5625" y2="75.60000000000007" style="visibility: inherit;" fill="rgb(0, 0, 0)" stroke="rgb(204, 204, 204)" stroke-width="1px"></line><line x1="51.5625" y1="50.400000000000034" x2="46.5625" y2="50.400000000000034" style="visibility: inherit;" fill="rgb(0, 0, 0)" stroke="rgb(204, 204, 204)" stroke-width="1px"></line><line x1="51.5625" y1="25.200000000000035" x2="46.5625" y2="25.200000000000035" style="visibility: inherit;" fill="rgb(0, 0, 0)" stroke="rgb(204, 204, 204)" stroke-width="1px"></line><line x1="51.5625" y1="0" x2="46.5625" y2="0" style="visibility: inherit;" fill="rgb(0, 0, 0)" stroke="rgb(204, 204, 204)" stroke-width="1px"></line></g><g transform="translate(41.5625, 0)"><text x="0" y="378" dx="0em" dy="0.3em" style="text-anchor: end; visibility: hidden; font-family: Roboto, sans-serif; font-size: 12px; font-weight: 200;" fill="rgb(50, 49, 63)" stroke="none" stroke-width="1px">1.18</text><text x="0" y="352.79999999999995" dx="0em" dy="0.3em" style="text-anchor: end; visibility: inherit; font-family: Roboto, sans-serif; font-size: 12px; font-weight: 200;" fill="rgb(50, 49, 63)" stroke="none" stroke-width="1px">1.2</text><text x="0" y="327.59999999999997" dx="0em" dy="0.3em" style="text-anchor: end; visibility: inherit; font-family: Roboto, sans-serif; font-size: 12px; font-weight: 200;" fill="rgb(50, 49, 63)" stroke="none" stroke-width="1px">1.22</text><text x="0" y="302.3999999999999" dx="0em" dy="0.3em" style="text-anchor: end; visibility: inherit; font-family: Roboto, sans-serif; font-size: 12px; font-weight: 200;" fill="rgb(50, 49, 63)" stroke="none" stroke-width="1px">1.24</text><text x="0" y="277.19999999999993" dx="0em" dy="0.3em" style="text-anchor: end; visibility: inherit; font-family: Roboto, sans-serif; font-size: 12px; font-weight: 200;" fill="rgb(50, 49, 63)" stroke="none" stroke-width="1px">1.26</text><text x="0" y="251.99999999999991" dx="0em" dy="0.3em" style="text-anchor: end; visibility: inherit; font-family: Roboto, sans-serif; font-size: 12px; font-weight: 200;" fill="rgb(50, 49, 63)" stroke="none" stroke-width="1px">1.28</text><text x="0" y="226.79999999999987" dx="0em" dy="0.3em" style="text-anchor: end; visibility: inherit; font-family: Roboto, sans-serif; font-size: 12px; font-weight: 200;" fill="rgb(50, 49, 63)" stroke="none" stroke-width="1px">1.3</text><text x="0" y="201.59999999999988" dx="0em" dy="0.3em" style="text-anchor: end; visibility: inherit; font-family: Roboto, sans-serif; font-size: 12px; font-weight: 200;" fill="rgb(50, 49, 63)" stroke="none" stroke-width="1px">1.32</text><text x="0" y="176.39999999999984" dx="0em" dy="0.3em" style="text-anchor: end; visibility: inherit; font-family: Roboto, sans-serif; font-size: 12px; font-weight: 200;" fill="rgb(50, 49, 63)" stroke="none" stroke-width="1px">1.34</text><text x="0" y="151.19999999999985" dx="0em" dy="0.3em" style="text-anchor: end; visibility: inherit; font-family: Roboto, sans-serif; font-size: 12px; font-weight: 200;" fill="rgb(50, 49, 63)" stroke="none" stroke-width="1px">1.36</text><text x="0" y="126.0000000000001" dx="0em" dy="0.3em" style="text-anchor: end; visibility: inherit; font-family: Roboto, sans-serif; font-size: 12px; font-weight: 200;" fill="rgb(50, 49, 63)" stroke="none" stroke-width="1px">1.38</text><text x="0" y="100.80000000000007" dx="0em" dy="0.3em" style="text-anchor: end; visibility: inherit; font-family: Roboto, sans-serif; font-size: 12px; font-weight: 200;" fill="rgb(50, 49, 63)" stroke="none" stroke-width="1px">1.4</text><text x="0" y="75.60000000000007" dx="0em" dy="0.3em" style="text-anchor: end; visibility: inherit; font-family: Roboto, sans-serif; font-size: 12px; font-weight: 200;" fill="rgb(50, 49, 63)" stroke="none" stroke-width="1px">1.42</text><text x="0" y="50.400000000000034" dx="0em" dy="0.3em" style="text-anchor: end; visibility: inherit; font-family: Roboto, sans-serif; font-size: 12px; font-weight: 200;" fill="rgb(50, 49, 63)" stroke="none" stroke-width="1px">1.44</text><text x="0" y="25.200000000000035" dx="0em" dy="0.3em" style="text-anchor: end; visibility: inherit; font-family: Roboto, sans-serif; font-size: 12px; font-weight: 200;" fill="rgb(50, 49, 63)" stroke="none" stroke-width="1px">1.46</text><text x="0" y="0" dx="0em" dy="0.3em" style="text-anchor: end; visibility: hidden; font-family: Roboto, sans-serif; font-size: 12px; font-weight: 200;" fill="rgb(50, 49, 63)" stroke="none" stroke-width="1px">1.48</text></g><line x1="51.5625" y1="0" x2="51.5625" y2="378" fill="rgb(0, 0, 0)" stroke="rgb(204, 204, 204)" stroke-width="1px"></line></g></g><g transform="translate(51, 0)" clip-path="url(#clip_0)"><clipPath id="clip_0"><rect width="1444" height="378"></rect></clipPath><g><g><g><line x1="0" y1="0" x2="0" y2="378" fill="rgb(0, 0, 0)" stroke="rgb(60, 60, 60)" stroke-width="1px" opacity="0.25"></line><line x1="120.36979166666666" y1="0" x2="120.36979166666666" y2="378" fill="rgb(0, 0, 0)" stroke="rgb(60, 60, 60)" stroke-width="1px" opacity="0.25"></line><line x1="240.73958333333331" y1="0" x2="240.73958333333331" y2="378" fill="rgb(0, 0, 0)" stroke="rgb(60, 60, 60)" stroke-width="1px" opacity="0.25"></line><line x1="361.109375" y1="0" x2="361.109375" y2="378" fill="rgb(0, 0, 0)" stroke="rgb(60, 60, 60)" stroke-width="1px" opacity="0.25"></line><line x1="481.47916666666663" y1="0" x2="481.47916666666663" y2="378" fill="rgb(0, 0, 0)" stroke="rgb(60, 60, 60)" stroke-width="1px" opacity="0.25"></line><line x1="601.8489583333334" y1="0" x2="601.8489583333334" y2="378" fill="rgb(0, 0, 0)" stroke="rgb(60, 60, 60)" stroke-width="1px" opacity="0.25"></line><line x1="722.21875" y1="0" x2="722.21875" y2="378" fill="rgb(0, 0, 0)" stroke="rgb(60, 60, 60)" stroke-width="1px" opacity="0.25"></line><line x1="842.5885416666667" y1="0" x2="842.5885416666667" y2="378" fill="rgb(0, 0, 0)" stroke="rgb(60, 60, 60)" stroke-width="1px" opacity="0.25"></line><line x1="962.9583333333333" y1="0" x2="962.9583333333333" y2="378" fill="rgb(0, 0, 0)" stroke="rgb(60, 60, 60)" stroke-width="1px" opacity="0.25"></line><line x1="1083.328125" y1="0" x2="1083.328125" y2="378" fill="rgb(0, 0, 0)" stroke="rgb(60, 60, 60)" stroke-width="1px" opacity="0.25"></line><line x1="1203.6979166666667" y1="0" x2="1203.6979166666667" y2="378" fill="rgb(0, 0, 0)" stroke="rgb(60, 60, 60)" stroke-width="1px" opacity="0.25"></line><line x1="1324.0677083333333" y1="0" x2="1324.0677083333333" y2="378" fill="rgb(0, 0, 0)" stroke="rgb(60, 60, 60)" stroke-width="1px" opacity="0.25"></line><line x1="1444.4375" y1="0" x2="1444.4375" y2="378" fill="rgb(0, 0, 0)" stroke="rgb(60, 60, 60)" stroke-width="1px" opacity="0.25"></line></g><g><line x1="0" y1="378" x2="1444.4375" y2="378" fill="rgb(0, 0, 0)" stroke="rgb(60, 60, 60)" stroke-width="1px" opacity="0.25"></line><line x1="0" y1="352.79999999999995" x2="1444.4375" y2="352.79999999999995" fill="rgb(0, 0, 0)" stroke="rgb(60, 60, 60)" stroke-width="1px" opacity="0.25"></line><line x1="0" y1="327.59999999999997" x2="1444.4375" y2="327.59999999999997" fill="rgb(0, 0, 0)" stroke="rgb(60, 60, 60)" stroke-width="1px" opacity="0.25"></line><line x1="0" y1="302.3999999999999" x2="1444.4375" y2="302.3999999999999" fill="rgb(0, 0, 0)" stroke="rgb(60, 60, 60)" stroke-width="1px" opacity="0.25"></line><line x1="0" y1="277.19999999999993" x2="1444.4375" y2="277.19999999999993" fill="rgb(0, 0, 0)" stroke="rgb(60, 60, 60)" stroke-width="1px" opacity="0.25"></line><line x1="0" y1="251.99999999999991" x2="1444.4375" y2="251.99999999999991" fill="rgb(0, 0, 0)" stroke="rgb(60, 60, 60)" stroke-width="1px" opacity="0.25"></line><line x1="0" y1="226.79999999999987" x2="1444.4375" y2="226.79999999999987" fill="rgb(0, 0, 0)" stroke="rgb(60, 60, 60)" stroke-width="1px" opacity="0.25"></line><line x1="0" y1="201.59999999999988" x2="1444.4375" y2="201.59999999999988" fill="rgb(0, 0, 0)" stroke="rgb(60, 60, 60)" stroke-width="1px" opacity="0.25"></line><line x1="0" y1="176.39999999999984" x2="1444.4375" y2="176.39999999999984" fill="rgb(0, 0, 0)" stroke="rgb(60, 60, 60)" stroke-width="1px" opacity="0.25"></line><line x1="0" y1="151.19999999999985" x2="1444.4375" y2="151.19999999999985" fill="rgb(0, 0, 0)" stroke="rgb(60, 60, 60)" stroke-width="1px" opacity="0.25"></line><line x1="0" y1="126.0000000000001" x2="1444.4375" y2="126.0000000000001" fill="rgb(0, 0, 0)" stroke="rgb(60, 60, 60)" stroke-width="1px" opacity="0.25"></line><line x1="0" y1="100.80000000000007" x2="1444.4375" y2="100.80000000000007" fill="rgb(0, 0, 0)" stroke="rgb(60, 60, 60)" stroke-width="1px" opacity="0.25"></line><line x1="0" y1="75.60000000000007" x2="1444.4375" y2="75.60000000000007" fill="rgb(0, 0, 0)" stroke="rgb(60, 60, 60)" stroke-width="1px" opacity="0.25"></line><line x1="0" y1="50.400000000000034" x2="1444.4375" y2="50.400000000000034" fill="rgb(0, 0, 0)" stroke="rgb(60, 60, 60)" stroke-width="1px" opacity="0.25"></line><line x1="0" y1="25.200000000000035" x2="1444.4375" y2="25.200000000000035" fill="rgb(0, 0, 0)" stroke="rgb(60, 60, 60)" stroke-width="1px" opacity="0.25"></line><line x1="0" y1="0" x2="1444.4375" y2="0" fill="rgb(0, 0, 0)" stroke="rgb(60, 60, 60)" stroke-width="1px" opacity="0.25"></line></g></g></g><g><g><line x1="0" y1="1864.7999999999997" x2="1444.4375" y2="1864.7999999999997" fill="rgb(0, 0, 0)" stroke="rgb(153, 153, 153)" stroke-width="1.5px"></line></g></g><g><g><line x1="120.36979166666666" y1="0" x2="120.36979166666666" y2="378" fill="rgb(0, 0, 0)" stroke="rgb(153, 153, 153)" stroke-width="1.5px"></line></g></g><g><g><g><g><g><path stroke="rgb(204, 51, 17)" stroke-width="2px" d="M120.36979166666666,-138.08829803466793L144.44375,71.55611972808835L168.51770833333333,119.77961997985837L192.59166666666667,219.64826087951656L216.665625,261.67916278839107L240.73958333333331,236.63359622955318L264.81354166666665,273.9414928436279L288.8875,297.35164146423335L312.9614583333333,315.87416152954097L337.03541666666666,327.5631640434264L361.109375,330.75859766006465L385.18333333333334,292.0773885726928L409.2572916666667,299.63984470367427L433.33125,300.57801704406734L457.4052083333333,302.8507493019103L481.47916666666663,304.1246269226073L505.55312499999997,308.35736732482906L529.6270833333333,311.9304130554199L553.7010416666667,316.0156534194946L577.775,318.11099510192867L601.8489583333334,319.74310855865474L625.9229166666667,321.0590432167052L649.996875,321.40811662673946L674.0708333333333,277.48404722213735L698.1447916666667,267.8702590942382L722.21875,262.83483009338374L746.2927083333334,256.3189933776855L770.3666666666667,248.36150150299065L794.4406250000001,239.90953903198238L818.5145833333333,239.25284843444817L842.5885416666667,234.81703262329094L866.6625,233.03516607284539L890.7364583333334,230.56867103576653L914.8104166666666,228.18689088821407L938.884375,227.04128723144524L962.9583333333333,223.79373292922966L987.0322916666667,224.91981010437004L1011.1062499999999,225.07707338333122L1035.1802083333334,224.92897253036494L1059.2541666666666,225.58446149826042L1083.328125,225.97183685302727L1107.4020833333334,226.3984153747558L1131.4760416666666,226.50581102371208L1155.55,227.3403428077697L1179.6239583333333,227.56114225387566L1203.6979166666667,227.64780979156487L1227.771875,178.73427371978752L1251.8458333333333,165.841989326477L1275.9197916666667,164.1496441841125L1299.99375,151.8131134986877" style="fill: none;" fill="none"></path></g><g><path stroke="rgb(255, 112, 67)" stroke-width="2px" d="M168.51770833333333,-23.92281789779668L192.59166666666667,76.67416076660153L216.665625,129.500653553009L240.73958333333331,83.50752811431883L264.81354166666665,116.1691735267639L288.8875,147.47793416976924L312.9614583333333,168.09504489898677L337.03541666666666,190.0244853973388L361.109375,198.12391977310176L385.18333333333334,135.3785751342773L409.2572916666667,145.10561685562126L433.33125,150.8333347320556L457.4052083333333,162.19158868789668L481.47916666666663,162.84242134094234L505.55312499999997,173.48405342102046L529.6270833333333,186.1797211647033L553.7010416666667,192.58005123138423" style="fill: none;" fill="none"></path></g><g><path stroke="rgb(204, 51, 17)" stroke-width="2px" d="M120.36979166666666,-147.43262071609493L144.44375,38.14525823593139L168.51770833333333,71.23768787384029L192.59166666666667,169.05619840621944L216.665625,216.90824489593498L240.73958333333331,174.61103181838985L264.81354166666665,206.48756246566765L288.8875,231.36294822692864L312.9614583333333,257.40466575622554L337.03541666666666,272.65935401916494L361.109375,278.75612239837636L385.18333333333334,216.84891443252556L409.2572916666667,227.2002027511596L433.33125,227.3350856781005" style="fill: none;" fill="none"></path></g><g><path stroke="rgb(0, 153, 136)" stroke-width="2px" d="M120.36979166666666,-150.74025650024413L144.44375,40.42369823455808L168.51770833333333,72.91681509017943L192.59166666666667,171.38660888671868L216.665625,223.39073638916008L240.73958333333331,169.87480859756462L264.81354166666665,209.5302389144897L288.8875,242.14817504882808L312.9614583333333,263.29280118942256L337.03541666666666,280.3843305587768L361.109375,290.7820318222045L385.18333333333334,237.8129957199096L409.2572916666667,236.523346710205L433.33125,236.5470788955688L457.4052083333333,250.23949842452996L481.47916666666663,259.2671916961669L505.55312499999997,260.68511466979976L529.6270833333333,273.851821231842L553.7010416666667,282.99411993026723L577.775,289.1218302726745L601.8489583333334,292.81639080047603L625.9229166666667,295.509843635559L649.996875,296.2031839370727L674.0708333333333,230.14810066223137L698.1447916666667,217.58596401214592" style="fill: none;" fill="none"></path></g><g><path stroke="rgb(0, 119, 187)" stroke-width="2px" d="M120.36979166666666,-68.0789520263672L144.44375,105.02871494293211L168.51770833333333,137.25056390762327L192.59166666666667,222.84519653320305L216.665625,271.8046949386596L240.73958333333331,223.38608007431026L264.81354166666665,257.16208677291866L288.8875,273.8094637870788L312.9614583333333,293.151194858551L337.03541666666666,308.07047824859615L361.109375,315.8884308815002L385.18333333333334,253.12190752029414L409.2572916666667,252.2975895881652L433.33125,252.21662979125972L457.4052083333333,253.28863363265987L481.47916666666663,260.24847249984737L505.55312499999997,262.0587275505065L529.6270833333333,265.5698893547057L553.7010416666667,270.54613809585567L577.775,275.38014392852773L601.8489583333334,279.1250226974487L625.9229166666667,281.8106649398803L649.996875,282.7332160949706L674.0708333333333,214.23897485733025L698.1447916666667,206.3553832054138L722.21875,195.36963443756096L746.2927083333334,189.5713208198547L770.3666666666667,181.4349363327026L794.4406250000001,173.74255399703975L818.5145833333333,167.0997951507568L842.5885416666667,167.17354516983028L866.6625,165.80308656692497L890.7364583333334,162.92202930450435L914.8104166666666,162.71039228439327L938.884375,162.20751028060909L962.9583333333333,162.532400894165" style="fill: none;" fill="none"></path></g><g><path stroke="rgb(187, 187, 187)" stroke-width="2px" d="M120.36979166666666,-59.66604251861575L144.44375,110.08352022171016L168.51770833333333,143.271930027008L192.59166666666667,231.63767080307002L216.665625,278.46848230361934L240.73958333333331,232.10855941772456L264.81354166666665,259.6188185691833L288.8875,284.70418910980214L312.9614583333333,300.79055528640737L337.03541666666666,317.1502922058105L361.109375,323.29933147430415L385.18333333333334,258.663673210144L409.2572916666667,258.4825275421142L433.33125,262.57542829513545L457.4052083333333,263.19832305908193L481.47916666666663,265.8815620422363L505.55312499999997,269.22945241928096L529.6270833333333,272.15136508941646L553.7010416666667,280.25395374298085L577.775,284.099018383026L601.8489583333334,287.9470870971679L625.9229166666667,290.5480144500732L649.996875,291.30023460388173L674.0708333333333,220.73708753585808L698.1447916666667,207.1017454147338L722.21875,197.67345886230467L746.2927083333334,197.1306226730346L770.3666666666667,185.23839454650872L794.4406250000001,178.08974962234493L818.5145833333333,173.33895664215083L842.5885416666667,164.57997779846187L866.6625,168.611445236206L890.7364583333334,174.69935159683223L914.8104166666666,171.76301937103267L938.884375,169.39205389022823L962.9583333333333,168.67317895889278L987.0322916666667,174.0491197586059L1011.1062499999999,176.54610614776604L1035.1802083333334,176.60258274078365" style="fill: none;" fill="none"></path></g><g><path stroke="rgb(51, 187, 238)" stroke-width="2px" d="M120.36979166666666,-60.46016950607305L144.44375,111.70602064132687L168.51770833333333,139.2418144226074L192.59166666666667,233.83124570846553L216.665625,276.48864727020253L240.73958333333331,230.67336301803584L264.81354166666665,259.8029683113097L288.8875,280.48887233734126L312.9614583333333,298.7163923263549L337.03541666666666,315.47537069320674L361.109375,323.1341073989867L385.18333333333334,256.6608570098876L409.2572916666667,261.03073339462276L433.33125,256.7675016403198L457.4052083333333,264.05899028778066L481.47916666666663,263.5404870986938L505.55312499999997,266.5378020286559" style="fill: none;" fill="none"></path></g><g><path stroke="rgb(238, 51, 119)" stroke-width="2px" d="M120.36979166666666,-72.55367059707646L144.44375,101.10509376525874L168.51770833333333,133.5169504165649L192.59166666666667,222.00600843429558L216.665625,270.5269120216369L240.73958333333331,213.1554053306579L264.81354166666665,250.5720494270324L288.8875,269.1474411964416L312.9614583333333,287.9081843376159L337.03541666666666,305.26887874603267L361.109375,312.015278148651L385.18333333333334,244.1362712860107L409.2572916666667,251.55933837890618L433.33125,247.27327566146843L457.4052083333333,252.9738066673278L481.47916666666663,250.16574840545647L505.55312499999997,257.6245639801025L529.6270833333333,259.23940401077266L553.7010416666667,266.0005233764648L577.775,272.45072107315053L601.8489583333334,277.4960635185241L625.9229166666667,279.65479116439815L649.996875,280.43915491104116L674.0708333333333,209.47436313629146L698.1447916666667,195.71540336608882L722.21875,187.68641452789302L746.2927083333334,182.34321813583367L770.3666666666667,175.6366227149963L794.4406250000001,162.21577148437493L818.5145833333333,158.8650272369384L842.5885416666667,154.82364635467525" style="fill: none;" fill="none"></path></g></g></g></g></g><g><g><span fill="rgb(0, 0, 0)" stroke="none" stroke-width="1px">Alt + Scroll to Zoom</span></g></g></g><g transform="translate(51, 378)" clip-path="url(#clip_1)"><clipPath id="clip_1"><rect width="1444" height="22"></rect></clipPath><g><g><line x1="0" y1="0" x2="0" y2="5" style="visibility: inherit;" fill="rgb(0, 0, 0)" stroke="rgb(204, 204, 204)" stroke-width="1px"></line><line x1="120.36979166666666" y1="0" x2="120.36979166666666" y2="5" style="visibility: inherit;" fill="rgb(0, 0, 0)" stroke="rgb(204, 204, 204)" stroke-width="1px"></line><line x1="240.73958333333331" y1="0" x2="240.73958333333331" y2="5" style="visibility: inherit;" fill="rgb(0, 0, 0)" stroke="rgb(204, 204, 204)" stroke-width="1px"></line><line x1="361.109375" y1="0" x2="361.109375" y2="5" style="visibility: inherit;" fill="rgb(0, 0, 0)" stroke="rgb(204, 204, 204)" stroke-width="1px"></line><line x1="481.47916666666663" y1="0" x2="481.47916666666663" y2="5" style="visibility: inherit;" fill="rgb(0, 0, 0)" stroke="rgb(204, 204, 204)" stroke-width="1px"></line><line x1="601.8489583333334" y1="0" x2="601.8489583333334" y2="5" style="visibility: inherit;" fill="rgb(0, 0, 0)" stroke="rgb(204, 204, 204)" stroke-width="1px"></line><line x1="722.21875" y1="0" x2="722.21875" y2="5" style="visibility: inherit;" fill="rgb(0, 0, 0)" stroke="rgb(204, 204, 204)" stroke-width="1px"></line><line x1="842.5885416666667" y1="0" x2="842.5885416666667" y2="5" style="visibility: inherit;" fill="rgb(0, 0, 0)" stroke="rgb(204, 204, 204)" stroke-width="1px"></line><line x1="962.9583333333333" y1="0" x2="962.9583333333333" y2="5" style="visibility: inherit;" fill="rgb(0, 0, 0)" stroke="rgb(204, 204, 204)" stroke-width="1px"></line><line x1="1083.328125" y1="0" x2="1083.328125" y2="5" style="visibility: inherit;" fill="rgb(0, 0, 0)" stroke="rgb(204, 204, 204)" stroke-width="1px"></line><line x1="1203.6979166666667" y1="0" x2="1203.6979166666667" y2="5" style="visibility: inherit;" fill="rgb(0, 0, 0)" stroke="rgb(204, 204, 204)" stroke-width="1px"></line><line x1="1324.0677083333333" y1="0" x2="1324.0677083333333" y2="5" style="visibility: inherit;" fill="rgb(0, 0, 0)" stroke="rgb(204, 204, 204)" stroke-width="1px"></line><line x1="1444.4375" y1="0" x2="1444.4375" y2="5" style="visibility: inherit;" fill="rgb(0, 0, 0)" stroke="rgb(204, 204, 204)" stroke-width="1px"></line></g><g transform="translate(0, 8)"><text x="0" y="0" dx="0em" dy="0.95em" style="text-anchor: middle; visibility: hidden; font-family: Roboto, sans-serif; font-size: 12px; font-weight: 200;" fill="rgb(50, 49, 63)" stroke="none" stroke-width="1px">-5</text><text x="120.36979166666666" y="0" dx="0em" dy="0.95em" style="text-anchor: middle; visibility: inherit; font-family: Roboto, sans-serif; font-size: 12px; font-weight: 200;" fill="rgb(50, 49, 63)" stroke="none" stroke-width="1px">0</text><text x="240.73958333333331" y="0" dx="0em" dy="0.95em" style="text-anchor: middle; visibility: inherit; font-family: Roboto, sans-serif; font-size: 12px; font-weight: 200;" fill="rgb(50, 49, 63)" stroke="none" stroke-width="1px">5</text><text x="361.109375" y="0" dx="0em" dy="0.95em" style="text-anchor: middle; visibility: inherit; font-family: Roboto, sans-serif; font-size: 12px; font-weight: 200;" fill="rgb(50, 49, 63)" stroke="none" stroke-width="1px">10</text><text x="481.47916666666663" y="0" dx="0em" dy="0.95em" style="text-anchor: middle; visibility: inherit; font-family: Roboto, sans-serif; font-size: 12px; font-weight: 200;" fill="rgb(50, 49, 63)" stroke="none" stroke-width="1px">15</text><text x="601.8489583333334" y="0" dx="0em" dy="0.95em" style="text-anchor: middle; visibility: inherit; font-family: Roboto, sans-serif; font-size: 12px; font-weight: 200;" fill="rgb(50, 49, 63)" stroke="none" stroke-width="1px">20</text><text x="722.21875" y="0" dx="0em" dy="0.95em" style="text-anchor: middle; visibility: inherit; font-family: Roboto, sans-serif; font-size: 12px; font-weight: 200;" fill="rgb(50, 49, 63)" stroke="none" stroke-width="1px">25</text><text x="842.5885416666667" y="0" dx="0em" dy="0.95em" style="text-anchor: middle; visibility: inherit; font-family: Roboto, sans-serif; font-size: 12px; font-weight: 200;" fill="rgb(50, 49, 63)" stroke="none" stroke-width="1px">30</text><text x="962.9583333333333" y="0" dx="0em" dy="0.95em" style="text-anchor: middle; visibility: inherit; font-family: Roboto, sans-serif; font-size: 12px; font-weight: 200;" fill="rgb(50, 49, 63)" stroke="none" stroke-width="1px">35</text><text x="1083.328125" y="0" dx="0em" dy="0.95em" style="text-anchor: middle; visibility: inherit; font-family: Roboto, sans-serif; font-size: 12px; font-weight: 200;" fill="rgb(50, 49, 63)" stroke="none" stroke-width="1px">40</text><text x="1203.6979166666667" y="0" dx="0em" dy="0.95em" style="text-anchor: middle; visibility: inherit; font-family: Roboto, sans-serif; font-size: 12px; font-weight: 200;" fill="rgb(50, 49, 63)" stroke="none" stroke-width="1px">45</text><text x="1324.0677083333333" y="0" dx="0em" dy="0.95em" style="text-anchor: middle; visibility: inherit; font-family: Roboto, sans-serif; font-size: 12px; font-weight: 200;" fill="rgb(50, 49, 63)" stroke="none" stroke-width="1px">50</text><text x="1444.4375" y="0" dx="0em" dy="0.95em" style="text-anchor: middle; visibility: hidden; font-family: Roboto, sans-serif; font-size: 12px; font-weight: 200;" fill="rgb(50, 49, 63)" stroke="none" stroke-width="1px">55</text></g><line x1="0" y1="0" x2="1444.4375" y2="0" fill="rgb(0, 0, 0)" stroke="rgb(204, 204, 204)" stroke-width="1px"></line></g></g></g></g></svg>